<svg width="65" height="30" viewBox="0 0 65 30" fill="none" xmlns="http://www.w3.org/2000/svg">
<g clip-path="url(#clip0_89_17)">
<path d="M44.6133 14.3215L46.4069 22.681L58.1447 16.5202L44.6133 14.3215Z" fill="white"/>
<path d="M47.9507 1.82935L44.6147 14.3229L58.1476 16.5202L47.9507 1.82935Z" fill="white"/>
<path d="M33.6113 0L47.6095 1.73347L44.2998 14.1526L33.6113 0Z" fill="white"/>
<path d="M33.5024 2.44202H35.0613L39.4342 8.23933L33.5024 2.44202Z" fill="white"/>
<path d="M58.5179 16.44L54.4502 10.6041L61.0309 9.38306L58.5179 16.44Z" fill="white"/>
<path d="M57.8385 18.1506L58.2583 16.8523L47.9868 22.2545L57.8385 18.1506Z" fill="white"/>
<path d="M44.3262 14.6508L46.4692 24.6379L40.1094 30L44.3262 14.6508Z" fill="white"/>
<path d="M60.3901 12.349L64.1251 12.2832L61.4257 9.43604L60.3901 12.349Z" fill="white"/>
<path d="M34.5532 11.9496V13.0275C34.1721 12.4048 33.1006 11.994 32.5096 12.0799C31.9187 12.1657 30.9908 12.6725 30.4868 13.7976C29.9345 12.6138 28.8741 11.9238 28.0829 11.9238H25.6279V13.1892H27.2269C27.9338 13.1892 28.6711 13.1148 29.3311 13.7375C29.5876 13.9941 29.7555 14.3311 29.8089 14.6965C30.0118 15.6785 29.5962 16.8566 28.4958 16.8852C28.1469 16.8989 27.7981 16.8569 27.4616 16.7606L27.3774 16.8508C27.63 17.2233 27.8566 17.6142 28.0553 18.0203C28.7121 17.8751 29.3144 17.5361 29.7895 17.0441C30.0799 16.7512 30.3162 16.4058 30.4868 16.0249C30.6346 16.3995 30.8444 16.7444 31.1068 17.0441C31.521 17.5253 32.0658 17.8656 32.6698 18.0203C32.848 17.6169 33.0519 17.2262 33.2801 16.8508L33.2055 16.7606C32.9044 16.8567 32.5897 16.8988 32.2749 16.8852C31.1358 16.8523 30.9273 15.6413 31.104 14.6965C31.2573 13.8921 31.9477 13.1005 32.6229 13.0418C33.3809 12.9774 34.306 13.6401 34.4938 14.4517C34.5894 14.8967 34.6357 15.3515 34.6319 15.8073V23.1778C34.8121 23.149 34.9937 23.1308 35.1759 23.1234C35.3609 23.1301 35.5453 23.1483 35.7282 23.1778V11.9496H34.5532Z" fill="white"/>
<path d="M5.17193 7.67105C7.09257 7.47208 10.0419 10.0415 10.2807 10.6026L10.463 10.5726V9.09676C9.114 8.35671 7.23064 6.83652 4.73285 7.02261C1.96166 7.22873 0.877762 8.91783 0.875 11.8895V23.1849C1.04693 23.1525 1.2209 23.1328 1.39555 23.1262C1.59302 23.1338 1.78988 23.1534 1.98513 23.1849V13.195H9.35288V14.0152C5.30862 14.0925 3.55368 16.43 3.55368 18.4383C3.55368 20.886 5.9921 23.1864 10.2752 23.1864H10.4644V11.9238H2.08731L2.0735 11.8981C2.02098 11.6798 1.99272 11.456 1.98927 11.231C1.97409 9.32865 3.19192 7.87145 5.17193 7.67105ZM4.99933 18.5084C4.99933 16.742 6.88684 15.0487 9.35288 14.6808V22.7097C6.64382 22.2302 4.99933 20.0258 4.99933 18.5084Z" fill="white"/>
<path d="M10.7515 11.9238V13.1906H18.3291V14.0109C14.2848 14.0882 12.5299 16.4257 12.5299 18.434C12.5299 20.8817 14.9697 23.1821 19.2501 23.1821H19.4378V14.8339H19.5552C20.9153 14.7953 21.7285 15.6928 21.7713 16.8451C21.7883 17.2489 21.6813 17.6478 21.4657 17.9845C21.2501 18.3212 20.937 18.5784 20.5714 18.7188L20.5797 18.8892L21.6125 18.8577C22.1897 18.1005 22.5639 17.2559 22.5266 16.3441C22.4631 14.7538 21.4386 13.9965 19.4378 14.0252V13.2021H24.236V23.1921C24.4153 23.1593 24.5966 23.1397 24.7786 23.1334C24.9683 23.1413 25.1573 23.1609 25.3447 23.1921V11.9238H10.7515ZM13.9755 18.5084C13.9755 16.742 15.8644 15.0486 18.3291 14.6808V22.7111C15.6187 22.2302 13.9755 20.0257 13.9755 18.5084Z" fill="white"/>
</g>
<defs>
<clipPath id="clip0_89_17">
<rect width="65" height="30" fill="white"/>
</clipPath>
</defs>
</svg>
