<svg width="47" height="25" viewBox="0 0 47 25" fill="none" xmlns="http://www.w3.org/2000/svg">
<path d="M34.318 11.9346L35.6977 18.9009L44.7268 13.7668L34.318 11.9346Z" fill="white"/>
<path d="M36.8852 1.52448L34.3191 11.9358L44.729 13.7668L36.8852 1.52448Z" fill="white"/>
<path d="M25.855 0L36.6228 1.44456L34.0769 11.7938L25.855 0Z" fill="white"/>
<path d="M25.7711 2.03503H26.9703L30.334 6.86613L25.7711 2.03503Z" fill="white"/>
<path d="M45.0136 13.7L41.8846 8.83672L46.9467 7.81921L45.0136 13.7Z" fill="white"/>
<path d="M44.491 15.1255L44.8139 14.0436L36.9128 18.5454L44.491 15.1255Z" fill="white"/>
<path d="M34.0971 12.2089L35.7455 20.5315L30.8534 25L34.0971 12.2089Z" fill="white"/>
<path d="M26.5794 9.95799V10.8562C26.2862 10.3373 25.462 9.99497 25.0074 10.0665C24.5528 10.1381 23.8391 10.5604 23.4514 11.498C23.0266 10.5115 22.2109 9.93652 21.6023 9.93652H19.7138V10.991H20.9437C21.4876 10.991 22.0547 10.929 22.5624 11.4479C22.7597 11.6618 22.8889 11.9426 22.9299 12.2471C23.0861 13.0654 22.7664 14.0471 21.9198 14.071C21.6515 14.0825 21.3832 14.0474 21.1243 13.9672L21.0595 14.0424C21.2539 14.3528 21.4282 14.6785 21.581 15.0169C22.0863 14.896 22.5496 14.6134 22.915 14.2034C23.1384 13.9593 23.3202 13.6715 23.4514 13.3541C23.5651 13.6662 23.7265 13.9537 23.9283 14.2034C24.2469 14.6044 24.666 14.888 25.1306 15.0169C25.2677 14.6807 25.4245 14.3551 25.6001 14.0424L25.5427 13.9672C25.3111 14.0472 25.069 14.0823 24.8269 14.071C23.9506 14.0435 23.7902 13.0344 23.9262 12.2471C24.0441 11.5767 24.5751 10.9171 25.0945 10.8681C25.6776 10.8145 26.3893 11.3668 26.5337 12.0431C26.6073 12.4139 26.6429 12.7929 26.6399 13.1728V19.3148C26.7785 19.2908 26.9183 19.2757 27.0584 19.2695C27.2007 19.2751 27.3426 19.2902 27.4832 19.3148V9.95799H26.5794Z" fill="white"/>
<path d="M3.97843 6.39252C5.45584 6.22671 7.72454 8.3679 7.90829 8.8355L8.04849 8.81045V7.58061C7.01079 6.9639 5.56205 5.69708 3.64067 5.85215C1.50899 6.02393 0.67522 7.4315 0.673096 9.90788V19.3208C0.805352 19.2937 0.939171 19.2773 1.07352 19.2718C1.22542 19.2782 1.37685 19.2945 1.52704 19.3208V10.9958H7.19454V11.6793C4.08358 11.7437 2.73362 13.6916 2.73362 15.3652C2.73362 17.405 4.60933 19.3219 7.90404 19.3219H8.04955V9.93651H1.60564L1.59502 9.91504C1.55462 9.73313 1.53288 9.54663 1.53023 9.35917C1.51855 7.77385 2.45534 6.55952 3.97843 6.39252ZM3.84566 15.4237C3.84566 13.9517 5.29758 12.5405 7.19454 12.234V18.9247C5.11065 18.5251 3.84566 16.6881 3.84566 15.4237Z" fill="white"/>
<path d="M8.27051 9.93652V10.9922H14.0994V11.6757C10.9885 11.7401 9.63852 13.6881 9.63852 15.3617C9.63852 17.4015 11.5153 19.3184 14.8079 19.3184H14.9523V12.3616H15.0426C16.0888 12.3294 16.7144 13.0773 16.7473 14.0376C16.7604 14.3741 16.6781 14.7065 16.5122 14.9871C16.3464 15.2677 16.1055 15.482 15.8243 15.599L15.8307 15.741L16.6252 15.7147C17.0691 15.0837 17.357 14.3799 17.3283 13.6201C17.2794 12.2948 16.4914 11.6638 14.9523 11.6876V11.0017H18.6432V19.3267C18.7812 19.2995 18.9206 19.2831 19.0606 19.2778C19.2065 19.2844 19.3519 19.3007 19.4961 19.3267V9.93652H8.27051ZM10.7506 15.4237C10.7506 13.9517 12.2036 12.5405 14.0994 12.234V18.9259C12.0145 18.5251 10.7506 16.6881 10.7506 15.4237Z" fill="white"/>
</svg>
