<?xml version="1.0" encoding="UTF-8"?>
<!DOCTYPE svg PUBLIC "-//W3C//DTD SVG 1.1//EN" "http://www.w3.org/Graphics/SVG/1.1/DTD/svg11.dtd">
<svg xmlns="http://www.w3.org/2000/svg" version="1.1" width="512px" height="512px" style="shape-rendering:geometricPrecision; text-rendering:geometricPrecision; image-rendering:optimizeQuality; fill-rule:evenodd; clip-rule:evenodd" xmlns:xlink="http://www.w3.org/1999/xlink">
<g><path style="opacity:1" fill="#0397f9" d="M 319.5,-0.5 C 322.833,-0.5 326.167,-0.5 329.5,-0.5C 384.132,53.2993 438.299,107.633 492,162.5C 492.854,166.625 492.52,170.625 491,174.5C 455.299,210.035 419.799,245.701 384.5,281.5C 365.702,299.129 347.036,316.963 328.5,335C 315.476,335.877 310.142,329.71 312.5,316.5C 363.097,267.57 413.097,217.904 462.5,167.5C 413.097,117.096 363.097,67.4296 312.5,18.5C 310.655,10.3946 312.988,4.06126 319.5,-0.5 Z"/></g>
<g><path style="opacity:0.995" fill="#64b9fb" d="M 312.5,18.5 C 363.097,67.4296 413.097,117.096 462.5,167.5C 413.097,217.904 363.097,267.57 312.5,316.5C 312.5,304.833 312.5,293.167 312.5,281.5C 312.5,264.167 312.5,246.833 312.5,229.5C 280.167,229.5 247.833,229.5 215.5,229.5C 215.667,213.163 215.5,196.83 215,180.5C 206.247,160.763 192.081,155.597 172.5,165C 150.965,186.368 129.632,207.868 108.5,229.5C 97.8281,229.667 87.1615,229.5 76.5,229C 73.0629,227.895 70.5629,225.728 69,222.5C 68.3333,185.833 68.3333,149.167 69,112.5C 70.5629,109.272 73.0629,107.105 76.5,106C 155.166,105.5 233.833,105.333 312.5,105.5C 312.5,76.5 312.5,47.5 312.5,18.5 Z"/></g>
<g><path style="opacity:1" fill="#1296f7" d="M 215.5,229.5 C 210.5,229.5 205.5,229.5 200.5,229.5C 199.669,214.005 199.169,198.339 199,182.5C 194.521,175.673 188.688,174.173 181.5,178C 164.248,195.754 146.582,212.921 128.5,229.5C 121.833,229.5 115.167,229.5 108.5,229.5C 129.632,207.868 150.965,186.368 172.5,165C 192.081,155.597 206.247,160.763 215,180.5C 215.5,196.83 215.667,213.163 215.5,229.5 Z"/></g>
<g><path style="opacity:0.993" fill="#fe6571" d="M 200.5,229.5 C 200.5,246.833 200.5,264.167 200.5,281.5C 232.833,281.5 265.167,281.5 297.5,281.5C 297.333,297.503 297.5,313.503 298,329.5C 304.123,347.147 316.29,353.647 334.5,349C 336.996,347.92 339.33,346.586 341.5,345C 362.702,323.965 383.702,302.799 404.5,281.5C 406.167,281.5 407.833,281.5 409.5,281.5C 413.672,282.829 416.839,285.495 419,289.5C 419.667,325.167 419.667,360.833 419,396.5C 417.312,400.685 414.479,403.685 410.5,405.5C 340.5,405.5 270.5,405.5 200.5,405.5C 200.667,438.168 200.5,470.835 200,503.5C 198.723,506.938 196.557,509.605 193.5,511.5C 190.167,511.5 186.833,511.5 183.5,511.5C 128.868,457.701 74.7009,403.367 21,348.5C 20.1462,344.375 20.4796,340.375 22,336.5C 57.7015,300.965 93.2015,265.299 128.5,229.5C 146.582,212.921 164.248,195.754 181.5,178C 188.688,174.173 194.521,175.673 199,182.5C 199.169,198.339 199.669,214.005 200.5,229.5 Z"/></g>
<g><path style="opacity:1" fill="#f73042" d="M 297.5,281.5 C 302.5,281.5 307.5,281.5 312.5,281.5C 312.5,293.167 312.5,304.833 312.5,316.5C 310.142,329.71 315.476,335.877 328.5,335C 347.036,316.963 365.702,299.129 384.5,281.5C 391.167,281.5 397.833,281.5 404.5,281.5C 383.702,302.799 362.702,323.965 341.5,345C 339.33,346.586 336.996,347.92 334.5,349C 316.29,353.647 304.123,347.147 298,329.5C 297.5,313.503 297.333,297.503 297.5,281.5 Z"/></g>
<g><path style="opacity:1" fill="#f93041" d="M 409.5,281.5 C 418.506,281.334 427.506,281.5 436.5,282C 440.333,283.167 442.833,285.667 444,289.5C 444.667,325.5 444.667,361.5 444,397.5C 442.833,401.333 440.333,403.833 436.5,405C 427.84,405.5 419.173,405.666 410.5,405.5C 414.479,403.685 417.312,400.685 419,396.5C 419.667,360.833 419.667,325.167 419,289.5C 416.839,285.495 413.672,282.829 409.5,281.5 Z"/></g>
</svg>
