<?xml version="1.0" encoding="UTF-8"?>
<!DOCTYPE svg PUBLIC "-//W3C//DTD SVG 1.1//EN" "http://www.w3.org/Graphics/SVG/1.1/DTD/svg11.dtd">
<svg xmlns="http://www.w3.org/2000/svg" version="1.1" width="2048px" height="2048px" style="shape-rendering:geometricPrecision; text-rendering:geometricPrecision; image-rendering:optimizeQuality; fill-rule:evenodd; clip-rule:evenodd" xmlns:xlink="http://www.w3.org/1999/xlink">
<g><path style="opacity:0.999" fill="#00694d" d="M 978.5,-0.5 C 1008.5,-0.5 1038.5,-0.5 1068.5,-0.5C 1331.76,14.5073 1557.43,113.341 1745.5,296C 1931.34,484.929 2032.01,712.429 2047.5,978.5C 2047.5,1008.5 2047.5,1038.5 2047.5,1068.5C 2032.49,1331.76 1933.66,1557.43 1751,1745.5C 1562.07,1931.34 1334.57,2032.01 1068.5,2047.5C 1038.5,2047.5 1008.5,2047.5 978.5,2047.5C 715.238,2032.49 489.572,1933.66 301.5,1751C 115.927,1562.34 15.2605,1335.18 -0.5,1069.5C -0.5,1038.83 -0.5,1008.17 -0.5,977.5C 15.2605,711.823 115.927,484.657 301.5,296C 489.57,113.341 715.237,14.5076 978.5,-0.5 Z"/></g>
<g><path style="opacity:1" fill="#f32a41" d="M 998.5,340.5 C 1209.91,337.667 1387.41,413 1531,566.5C 1666.31,721.795 1722.98,902.462 1701,1108.5C 1671.56,1311.68 1573.39,1471.85 1406.5,1589C 1246.36,1693.83 1072.02,1728.16 883.5,1692C 696.926,1649.54 551.426,1548.7 447,1389.5C 358.116,1245.92 325.116,1090.26 348,922.5C 374.899,756.816 450.732,618.649 575.5,508C 697.171,404.537 838.171,348.704 998.5,340.5 Z"/></g>
</svg>
