<svg width="170" height="170" viewBox="0 0 170 170" fill="none" xmlns="http://www.w3.org/2000/svg">
<circle cx="85" cy="85" r="70" fill="white"/>
<path d="M73.3334 85.9583C73.3334 81.2299 75.4422 77.3881 79.6598 74.4329C83.8774 71.4776 89.5092 70 96.5551 70C100.773 70 104.469 70.4925 107.645 71.4776C110.821 72.4134 113.252 73.7187 114.939 75.3933C118.313 78.6933 120 82.4859 120 86.771C120 91.0561 118.263 94.6516 114.79 97.5576C111.366 100.414 106.975 101.843 101.616 101.843C101.021 101.843 100.128 101.793 98.9368 101.695L99.6066 96.3016C106.206 96.3016 109.506 93.2232 109.506 87.0665C109.506 84.2098 108.29 81.7963 105.859 79.8262C103.328 77.7575 99.557 76.7232 94.5455 76.7232C89.534 76.7232 85.5645 78.0038 82.6369 80.565C80.9003 82.0426 80.0319 83.6433 80.0319 85.3672C80.0319 88.618 81.9919 90.465 85.9118 90.9083L85.0186 96.3755C81.5949 96.2277 78.7915 95.1441 76.6082 93.1247C74.425 91.1053 73.3334 88.7165 73.3334 85.9583ZM99.5322 80.565L96.2574 101.695C102.559 104.699 105.71 109.132 105.71 114.993C105.71 119.279 104.569 122.308 102.286 124.081C100.053 125.805 97.349 126.667 94.1734 126.667C90.9977 126.667 88.5168 125.854 86.7305 124.229C84.9442 122.603 84.0511 120.411 84.0511 117.653C84.0511 117.013 84.0759 116.52 84.1255 116.176L88.5912 81.9687C91.1714 80.7374 93.3546 80.1217 95.1409 80.1217C96.9272 80.1217 98.391 80.2694 99.5322 80.565ZM96.3318 119.944C97.5226 119.944 98.5398 119.525 99.3833 118.688C100.276 117.85 100.723 116.446 100.723 114.476C100.723 110.979 99.036 108.221 95.6619 106.202C94.868 111.964 94.4711 115.437 94.4711 116.619C94.4711 117.752 94.6447 118.589 94.9921 119.131C95.389 119.673 95.8356 119.944 96.3318 119.944Z" fill="#E4961C"/>
<path d="M51.9061 78.2564C54.3772 80.5757 57.4887 81.8177 61.107 82.0672L58.81 99.9212C58.742 100.409 58.7177 101.014 58.7177 101.687C58.7177 104.952 59.7806 107.742 62.0404 109.829C64.298 111.913 67.3198 112.833 70.84 112.833C74.4063 112.833 77.5592 111.842 80.1861 109.784L80.1908 109.78C83.1556 107.443 84.3764 103.637 84.3764 98.9885C84.3764 95.64 83.4821 92.6204 81.6514 90.0069C81.0552 89.1559 80.3682 88.3597 79.5949 87.6164C84.7652 87.3934 89.194 85.8325 92.749 82.8226L92.7511 82.8208C96.6475 79.5129 98.6667 75.3176 98.6667 70.3509C98.6667 65.4197 96.7297 61.0759 93.0196 57.3916C91.0272 55.3871 88.268 53.93 84.8983 52.9206C81.4878 51.8491 77.5855 51.3333 73.2217 51.3333C65.9075 51.3333 59.8265 52.8889 55.1675 56.2014C50.4708 59.5407 48 64.0235 48 69.5263C48 72.9192 49.3516 75.8588 51.9061 78.2564ZM63.2742 65.2228L62.3381 72.4988C60.9066 72.2741 60.0485 71.8366 59.5508 71.3606C59.0485 70.8803 58.6986 70.1567 58.6986 68.9266C58.6986 67.9272 59.168 66.813 60.6106 65.5675L60.621 65.5585L60.6313 65.5494C62.324 64.0467 64.4782 63.0088 67.169 62.5049C66.2693 62.8216 65.3406 63.2158 64.3862 63.678L63.4123 64.1496L63.2742 65.2228ZM78.3494 63.2195C79.5079 63.6481 80.4677 64.1958 81.2484 64.8434L81.2484 64.8434L81.255 64.8488C83.2695 66.5052 84.1722 68.4064 84.1722 70.6508C84.1722 73.4373 83.4417 75.1671 82.3226 76.2266C81.1828 77.3055 79.2911 78.0217 76.2733 78.0217H76.0885L78.1759 64.3557L78.3494 63.2195ZM74.6715 101.288L74.6508 101.307L74.6307 101.328C74.2341 101.727 73.8113 101.939 73.2959 101.996C73.2304 101.807 73.1377 101.397 73.1377 100.638C73.1377 99.8381 73.3606 97.635 73.8365 93.9191C74.9025 95.2292 75.3897 96.7348 75.3897 98.4637C75.3897 100.243 74.9802 100.994 74.6715 101.288Z" fill="#E4961C" stroke="white" stroke-width="4"/>
<path fill-rule="evenodd" clip-rule="evenodd" d="M85 170C131.944 170 170 131.944 170 85C170 38.0558 131.944 0 85 0C38.0558 0 0 38.0558 0 85C0 131.944 38.0558 170 85 170ZM85 159C125.869 159 159 125.869 159 85C159 44.1309 125.869 11 85 11C44.1309 11 11 44.1309 11 85C11 125.869 44.1309 159 85 159Z" fill="white"/>
</svg>
