<?xml version="1.0" encoding="UTF-8"?>
<!DOCTYPE svg PUBLIC "-//W3C//DTD SVG 1.1//EN" "http://www.w3.org/Graphics/SVG/1.1/DTD/svg11.dtd">
<svg xmlns="http://www.w3.org/2000/svg" version="1.1" width="512px" height="512px" style="shape-rendering:geometricPrecision; text-rendering:geometricPrecision; image-rendering:optimizeQuality; fill-rule:evenodd; clip-rule:evenodd" xmlns:xlink="http://www.w3.org/1999/xlink">
<g><path style="opacity:0.993" fill="#57ad7a" d="M 325.5,-0.5 C 329.833,-0.5 334.167,-0.5 338.5,-0.5C 394.098,42.6467 449.764,85.8134 505.5,129C 508.163,131.843 510.163,135.009 511.5,138.5C 511.5,141.833 511.5,145.167 511.5,148.5C 499.296,165.552 486.463,182.218 473,198.5C 472.51,199.793 472.343,201.127 472.5,202.5C 471.167,200.833 469.833,199.167 468.5,197.5C 453.249,173.734 437.749,150.067 422,126.5C 421.329,125.748 420.496,125.414 419.5,125.5C 408.548,106.439 396.214,88.2722 382.5,71C 376.949,68.2629 371.282,67.9295 365.5,70C 348.434,81.523 331.434,93.023 314.5,104.5C 263.167,138.5 211.833,172.5 160.5,206.5C 211.325,141.53 262.158,76.5302 313,11.5C 316.403,6.59492 320.57,2.59492 325.5,-0.5 Z"/></g>
<g><path style="opacity:1" fill="#29795d" d="M 419.5,125.5 C 408.831,131.721 397.497,135.721 385.5,137.5C 355.789,139.14 332.123,128.14 314.5,104.5C 331.434,93.023 348.434,81.523 365.5,70C 371.282,67.9295 376.949,68.2629 382.5,71C 396.214,88.2722 408.548,106.439 419.5,125.5 Z"/></g>
<g><path style="opacity:0.999" fill="#80cca0" d="M 314.5,104.5 C 332.123,128.14 355.789,139.14 385.5,137.5C 387.017,137.511 388.184,138.177 389,139.5C 407.769,167.386 426.269,195.386 444.5,223.5C 434.948,242.377 432.948,262.043 438.5,282.5C 350.529,341.156 262.529,399.823 174.5,458.5C 153.693,443.351 130.693,438.851 105.5,445C 97.8811,447.476 90.8811,450.976 84.5,455.5C 67.3511,431.216 50.6845,406.549 34.5,381.5C 36.7834,381.392 38.7834,380.559 40.5,379C 66.4702,355.621 74.6369,327.121 65,293.5C 62.6806,287.528 59.8473,281.861 56.5,276.5C 90.8708,252.808 125.537,229.475 160.5,206.5C 211.833,172.5 263.167,138.5 314.5,104.5 Z"/></g>
<g><path style="opacity:1" fill="#60be88" d="M 419.5,125.5 C 420.496,125.414 421.329,125.748 422,126.5C 437.749,150.067 453.249,173.734 468.5,197.5C 458.745,204.587 450.745,213.254 444.5,223.5C 426.269,195.386 407.769,167.386 389,139.5C 388.184,138.177 387.017,137.511 385.5,137.5C 397.497,135.721 408.831,131.721 419.5,125.5 Z"/></g>
<g><path style="opacity:1" fill="#2a7a5d" d="M 402.5,179.5 C 411.33,178.162 414.83,181.829 413,190.5C 400.095,200.036 386.929,209.203 373.5,218C 364.667,219.833 361.167,216.333 363,207.5C 364.167,206.333 365.333,205.167 366.5,204C 378.739,196.058 390.739,187.891 402.5,179.5 Z"/></g>
<g><path style="opacity:1" fill="#29795d" d="M 240.5,196.5 C 295.99,194.981 330.823,220.981 345,274.5C 349.381,323.596 329.214,358.096 284.5,378C 235.662,391.978 197.495,377.811 170,335.5C 149.732,292.942 155.899,254.775 188.5,221C 203.486,207.733 220.819,199.566 240.5,196.5 Z"/></g>
<g><path style="opacity:1" fill="#2a7a5d" d="M 468.5,197.5 C 469.833,199.167 471.167,200.833 472.5,202.5C 483.473,217.756 493.973,233.423 504,249.5C 506.565,258.067 504.399,265.233 497.5,271C 481.618,281.723 465.618,292.223 449.5,302.5C 448.504,302.586 447.671,302.252 447,301.5C 443.62,295.408 440.787,289.074 438.5,282.5C 432.948,262.043 434.948,242.377 444.5,223.5C 450.745,213.254 458.745,204.587 468.5,197.5 Z"/></g>
<g><path style="opacity:1" fill="#7fcb9f" d="M 212.5,228.5 C 217.991,228.16 221.824,230.494 224,235.5C 224.725,236.059 225.558,236.392 226.5,236.5C 232.584,233.84 238.918,233.007 245.5,234C 252.466,237.846 253.133,242.513 247.5,248C 243.241,249.042 238.907,249.875 234.5,250.5C 240.137,259.303 245.971,267.97 252,276.5C 267.068,270.534 280.068,273.534 291,285.5C 298.439,297.606 299.439,310.272 294,323.5C 292.167,326 290.333,328.5 288.5,331C 290.989,333.977 292.655,337.311 293.5,341C 293.11,347.393 289.777,350.059 283.5,349C 280.495,346.495 277.828,343.661 275.5,340.5C 267.03,345.099 258.03,346.599 248.5,345C 243.687,340.959 243.354,336.625 247.5,332C 252.422,330.758 257.422,329.758 262.5,329C 264.286,328.804 265.619,327.971 266.5,326.5C 259.5,315.833 252.5,305.167 245.5,294.5C 238.262,294.506 230.928,294.339 223.5,294C 211.467,288.619 205.134,279.286 204.5,266C 204.825,258.351 207.492,251.685 212.5,246C 210.609,242.945 208.943,239.778 207.5,236.5C 208.366,233.308 210.032,230.641 212.5,228.5 Z"/></g>
<g><path style="opacity:1" fill="#2c7c5f" d="M 221.5,260.5 C 226.302,266.079 230.635,272.079 234.5,278.5C 225.14,279.987 220.473,275.821 220.5,266C 220.581,264.076 220.914,262.243 221.5,260.5 Z"/></g>
<g><path style="opacity:1" fill="#2a7a5d" d="M 56.5,276.5 C 59.8473,281.861 62.6806,287.528 65,293.5C 74.6369,327.121 66.4702,355.621 40.5,379C 38.7834,380.559 36.7834,381.392 34.5,381.5C 22.3379,364.512 10.6712,347.179 -0.5,329.5C -0.5,325.833 -0.5,322.167 -0.5,318.5C 1.10896,315.47 3.10896,312.637 5.5,310C 22.2147,298.315 39.2147,287.149 56.5,276.5 Z"/></g>
<g><path style="opacity:1" fill="#60bf88" d="M 438.5,282.5 C 440.787,289.074 443.62,295.408 447,301.5C 447.671,302.252 448.504,302.586 449.5,302.5C 408.71,330.401 367.71,358.068 326.5,385.5C 281.642,414.426 237.308,444.092 193.5,474.5C 192.395,475.6 191.062,476.267 189.5,476.5C 185.971,469.301 180.971,463.301 174.5,458.5C 262.529,399.823 350.529,341.156 438.5,282.5 Z"/></g>
<g><path style="opacity:1" fill="#2c7b5f" d="M 261.5,289.5 C 274.203,288.208 281.203,293.875 282.5,306.5C 282.701,310.228 281.701,313.561 279.5,316.5C 272.697,308.031 266.697,299.031 261.5,289.5 Z"/></g>
<g><path style="opacity:1" fill="#2a7a5e" d="M 130.5,361.5 C 137.253,359.772 141.253,362.272 142.5,369C 142.507,370.812 141.84,372.312 140.5,373.5C 128.304,382.195 115.971,390.695 103.5,399C 94.4566,402.292 90.29,399.126 91,389.5C 104.146,380.022 117.312,370.689 130.5,361.5 Z"/></g>
<g><path style="opacity:0.984" fill="#57ad7a" d="M 326.5,385.5 C 298.11,422.425 269.11,458.925 239.5,495C 233.645,497.852 227.645,498.185 221.5,496C 211.956,489.067 202.623,481.9 193.5,474.5C 237.308,444.092 281.642,414.426 326.5,385.5 Z"/></g>
<g><path style="opacity:1" fill="#2a7a5e" d="M 174.5,458.5 C 180.971,463.301 185.971,469.301 189.5,476.5C 172.512,488.662 155.179,500.329 137.5,511.5C 133.5,511.5 129.5,511.5 125.5,511.5C 121.005,509.811 117.505,506.811 115,502.5C 104.584,486.933 94.4174,471.266 84.5,455.5C 90.8811,450.976 97.8811,447.476 105.5,445C 130.693,438.851 153.693,443.351 174.5,458.5 Z"/></g>
</svg>
