<svg width="39" height="18" viewBox="0 0 39 18" fill="none" xmlns="http://www.w3.org/2000/svg">
<path d="M24.8162 6.84607H18.0966C17.9635 6.84607 17.897 6.95086 17.897 7.05564V7.61451C17.897 7.75422 17.9968 7.82408 18.0966 7.82408H23.1197V10.7581C22.9866 10.5485 22.8203 10.339 22.654 10.1294C22.0552 9.50067 21.4231 9.18631 20.7578 9.18631C20.2256 9.18631 19.7931 9.46574 19.4272 9.95474C19.1278 10.3739 18.9615 10.8629 18.9615 11.317C18.9615 11.771 19.028 12.3648 19.3607 12.9237C19.7598 13.5874 20.4252 13.7969 21.0239 13.7969C21.7891 13.7969 22.4211 13.2381 22.4211 12.5046C22.4211 12.0854 22.2215 11.7361 21.8556 11.4916L21.4897 11.282V11.9108C21.4564 12.0854 21.1903 12.3299 20.8909 12.3299C20.6248 12.3299 20.3919 12.2251 20.2256 12.0505C20.1258 11.9457 20.0592 11.7361 20.0925 11.5964C20.0925 11.3868 20.159 11.2122 20.2921 11.0375C20.4584 10.828 20.6248 10.7232 20.8909 10.7232C21.5562 10.7232 22.1217 11.0375 22.5874 11.7361C22.9534 12.3299 23.1529 12.8888 23.1529 13.5175V14.9845L24.1509 15.6132C24.1842 15.6482 24.2174 15.6482 24.2507 15.6482C24.3838 15.6482 24.4503 15.5434 24.4503 15.4386V7.85901H24.8495C24.9826 7.85901 25.0491 7.75422 25.0491 7.64943V7.09057C25.0491 6.95086 24.9493 6.84607 24.8162 6.84607Z" fill="white"/>
<path d="M38.2555 6.84606H29.7395C29.6065 6.84606 29.5399 6.95085 29.5399 7.05563V8.03365C28.7083 7.12549 27.9765 6.67142 27.3111 6.67142C26.6791 6.67142 26.1468 6.81113 25.6811 7.19535C25.2487 7.54464 24.9825 7.99872 24.9825 8.52265C24.9825 10.0945 26.6458 10.0595 27.0783 9.84995C27.1448 9.81502 27.2446 9.74516 27.3444 9.74516C27.6771 9.74516 27.8101 10.0246 27.8101 10.2691C27.8101 10.6184 27.3111 10.9327 26.7124 10.9327C26.3797 10.9327 26.1801 10.828 26.047 10.6184L25.7809 10.1992L25.6146 10.6882C25.5813 10.793 25.5148 10.9327 25.5148 11.1074C25.5148 11.4567 25.6811 11.806 26.0138 12.1203C26.3132 12.3998 26.6791 12.5395 27.0783 12.5395C27.7103 12.5395 28.2426 12.295 28.5752 11.806C28.8746 11.4218 29.0077 10.9677 29.0077 10.4437C29.0077 10.1643 28.9079 9.84995 28.675 9.50066C28.4089 9.08151 28.0762 8.87194 27.7103 8.87194C27.5773 8.87194 27.4109 8.90687 27.2446 8.97673C27.1781 9.01165 27.045 9.04658 27.0117 9.04658C26.9452 9.04658 26.8454 9.01166 26.7789 8.90687C26.7124 8.83701 26.6458 8.73222 26.6458 8.55758C26.6458 8.17336 26.9785 7.78914 27.5773 7.78914H27.6105C28.0097 7.78914 28.4089 7.99872 28.7748 8.38293C29.0742 8.69729 29.3071 9.01165 29.5067 9.36094V14.9146L30.5046 15.5434C30.5379 15.5783 30.5712 15.5783 30.6044 15.5783C30.7375 15.5783 30.804 15.4735 30.804 15.3687V7.859H32.3342V12.7141L33.5318 13.2381H33.5983C33.6981 13.2381 33.7979 13.1682 33.7979 13.0285V12.9936C33.9975 11.5615 34.5963 10.5835 35.5943 9.98967V10.2691C35.5943 10.4787 35.5943 11.0026 35.6275 11.282C35.6275 11.4567 35.6275 11.5615 35.6608 11.6663C35.6608 12.2251 35.7273 13.0634 35.8937 13.6921C36.2263 14.8797 36.7918 15.1591 37.191 15.1591H37.2243C37.4572 15.1591 37.6568 15.0893 37.7898 14.9496C37.8563 14.8797 37.9561 14.74 37.9561 14.4955C37.9561 14.2859 37.9229 14.1113 37.8563 13.9716L37.7565 13.7969L37.557 13.8318C37.3574 13.9017 37.2576 13.9017 37.2576 13.8668H37.2243C37.1578 13.8668 37.1578 13.8668 37.1245 13.8318C37.058 13.7969 36.9249 13.6921 36.8251 13.3079C36.7586 13.0285 36.7253 12.6443 36.7253 12.4347C36.7253 10.8629 37.0247 9.6753 37.5237 9.4308H37.557C37.6235 9.39587 37.69 9.32602 37.69 9.22123C37.69 9.1863 37.69 9.15137 37.6568 9.11644V9.08151C37.4239 8.59251 36.9249 8.24322 36.2596 8.06857H36.1265C35.5943 8.17336 34.9622 8.55758 34.1639 9.25616C33.9643 9.4308 33.7647 9.60545 33.5983 9.78009V7.859H38.2555C38.3886 7.859 38.4551 7.75421 38.4551 7.64943V7.09056C38.4884 6.95085 38.3886 6.84606 38.2555 6.84606Z" fill="white"/>
<path d="M15.7014 9.43082C15.7014 9.67533 15.7014 9.8849 15.6681 10.0945C15.6016 11.0725 15.3687 11.9806 15.0028 12.8189C14.8697 13.1682 14.7034 13.4826 14.5038 13.7969C13.1067 16.1022 10.645 17.6391 7.85069 17.6391C6.65313 17.6391 5.5221 17.3597 4.52413 16.8707C1.86288 15.5783 0 12.7141 0 9.43082C0 6.18243 1.79634 3.38812 4.3578 2.06082C4.15821 2.34025 3.95861 2.61968 3.79228 2.93404C3.79228 2.96897 3.75902 2.96897 3.75902 3.0039C3.65922 3.10869 3.55942 3.17855 3.45963 3.28333C3.32656 3.38812 3.22677 3.52784 3.0937 3.63262L3.02717 3.70248L2.96064 3.77234C2.92738 3.80727 2.89411 3.87713 2.82758 3.91205C2.76105 4.01684 2.66125 4.12163 2.59472 4.22641C2.26206 4.68049 1.99594 5.1695 1.79634 5.69343C1.76308 5.72836 1.76308 5.79822 1.72981 5.83315C1.69655 5.903 1.69655 5.97286 1.66328 6.00779C1.66328 6.04272 1.63002 6.07765 1.63002 6.11258C1.59675 6.21736 1.56349 6.28722 1.53022 6.39201C1.49695 6.46187 1.49695 6.53172 1.46369 6.56665C1.46369 6.60158 1.43042 6.63651 1.43042 6.67144C1.43042 6.7413 1.39716 6.81115 1.39716 6.88101L1.29736 7.50973C1.29736 7.57959 1.29736 7.61452 1.26409 7.68438V8.52267C1.26409 10.7581 2.2288 12.784 3.79228 14.0764C4.98985 15.0893 6.4868 15.718 8.11682 15.718C9.61377 15.718 10.9777 15.229 12.1087 14.3558C12.9403 13.7271 13.6056 12.9237 14.1046 11.9806C14.1712 11.8409 14.2377 11.7361 14.3042 11.5964C14.7034 10.7232 14.9363 9.78011 14.9363 8.76718V8.52267C14.9363 8.27817 14.9363 8.0686 14.903 7.82409L14.9363 7.85902C15.0361 7.96381 15.1359 8.03367 15.2357 8.13845C15.3355 7.96381 15.4353 7.82409 15.5351 7.64945C15.6016 7.96381 15.6349 8.27817 15.6681 8.62746C15.7014 8.94182 15.7014 9.18632 15.7014 9.43082Z" fill="white"/>
<path d="M8.78217 2.82924L7.31848 0C4.89009 1.15265 3.22681 3.70247 3.22681 6.67142C3.22681 8.17337 3.65926 9.57052 4.3911 10.7232C4.32457 10.339 4.32457 9.95474 4.32457 9.5356C4.35784 6.49678 6.18745 3.91204 8.78217 2.82924Z" fill="white"/>
<path d="M9.94644 4.2264C10.5452 4.05176 11.2105 3.9819 11.8426 3.9819C12.2418 3.9819 12.6742 4.01683 13.0401 4.08669L13.0069 2.82925L12.9403 0.314365C12.6742 0.279436 12.3748 0.244507 12.0754 0.244507C10.7448 0.244507 9.51398 0.698583 8.51601 1.43209L9.31439 2.96896C7.88397 3.4929 6.71967 4.54076 5.98783 5.90299C5.6219 6.56664 5.35578 7.33508 5.25598 8.13844C5.45558 7.7193 5.68843 7.33508 5.95456 6.98579C6.91926 5.65849 8.31642 4.64555 9.94644 4.2264Z" fill="white"/>
<path d="M13.4393 2.79431L13.5058 4.57569C12.9403 4.40104 12.3748 4.29625 11.7428 4.29625C10.5785 4.29625 9.48069 4.64554 8.51599 5.23934C7.31842 6.00777 6.38698 7.23028 5.92126 8.66237C6.38698 7.99872 6.9525 7.40493 7.61781 6.95085C8.58252 6.2872 9.74681 5.90299 10.9776 5.90299C11.9091 5.90299 12.774 6.11256 13.5724 6.49678C14.1711 6.77621 14.7034 7.16043 15.1691 7.64943L16.1006 6.18242L17.2981 4.26133C16.2336 3.35317 14.903 2.79431 13.4393 2.79431Z" fill="white"/>
<path d="M14.9362 8.5925V8.837C14.9362 10.304 14.3707 11.5265 14.3042 11.6662C14.2376 11.806 14.1711 11.9107 14.1046 12.0505C13.6056 12.9935 12.9403 13.7969 12.1086 14.4256C10.9776 15.2639 9.61371 15.7879 8.11676 15.7879C6.48674 15.7879 4.95652 15.1941 3.79223 14.1462C2.26201 12.8189 1.26404 10.828 1.26404 8.5925V7.75421C1.26404 7.68435 1.26404 7.64942 1.2973 7.57956L1.3971 6.95084C1.3971 6.88098 1.43037 6.81113 1.43037 6.74127C1.43037 6.70634 1.46363 6.67141 1.46363 6.63648C1.4969 6.56662 1.4969 6.49677 1.53016 6.46184C1.56343 6.35705 1.59669 6.25226 1.62996 6.1824C1.62996 6.14748 1.66323 6.11255 1.66323 6.07762C1.69649 6.00776 1.69649 5.9379 1.72976 5.90297C1.76302 5.86804 1.76302 5.79819 1.79629 5.76326C1.99588 5.23932 2.29527 4.75032 2.59466 4.29624C2.66119 4.19146 2.76099 4.08667 2.82752 3.98188C2.86079 3.94695 2.89405 3.8771 2.96059 3.84217C2.99385 3.80724 2.99385 3.77231 3.02712 3.77231C3.06038 3.73738 3.06038 3.70245 3.09365 3.70245C3.19345 3.56274 3.32651 3.45795 3.45957 3.35316C3.55937 3.24838 3.65916 3.17852 3.75896 3.07373C3.75896 3.10866 3.7257 3.10866 3.7257 3.14359C3.7257 3.17852 3.69243 3.21345 3.69243 3.21345C3.29324 4.05174 3.02712 5.06468 2.92732 6.11255C2.89405 6.39198 2.89405 6.67141 2.89405 6.98577C2.89405 10.7581 4.98979 13.7969 7.58451 13.7969H7.85063C8.21656 13.7969 8.58248 13.7271 8.9484 13.6572C10.7115 13.1682 12.0088 11.4567 12.0088 9.46572V9.36094C11.9756 8.17335 11.5099 7.09056 10.7447 6.35705C11.277 6.35705 11.8092 6.46184 12.3082 6.60155C13.2729 6.84605 14.1378 7.33506 14.9029 7.96378L14.9362 7.99871C14.903 8.13842 14.9362 8.38293 14.9362 8.5925Z" fill="white"/>
<path d="M14.9362 8.59251V8.83701C14.9362 10.3739 14.2709 11.7012 14.2709 11.7012C14.2044 11.8409 14.1378 11.9457 14.0713 12.0854C13.5723 13.0285 12.8738 13.8318 12.0421 14.4606C10.8778 15.3687 9.48066 15.8228 8.01697 15.8228C6.42022 15.8228 4.89 15.229 3.65917 14.1811C2.06242 12.8189 1.13098 10.7581 1.13098 8.59251C1.13098 6.42691 2.06242 4.36611 3.65917 3.00388L3.7257 2.93402C3.7257 2.96895 3.69244 2.96895 3.69244 3.00388C3.69244 3.03881 3.65917 3.03881 3.65917 3.07374C2.09569 4.43596 1.19751 6.42691 1.19751 8.59251C1.19751 10.7581 2.09569 12.749 3.69244 14.1462C4.89 15.1941 6.45348 15.7529 8.01697 15.7529C9.44739 15.7529 10.8445 15.2989 12.0088 14.3907C12.8405 13.762 13.5058 12.9586 14.0048 12.0155C14.0713 11.8758 14.1378 11.771 14.1711 11.6313C14.1711 11.6313 14.8364 10.339 14.8364 8.80208V8.55758C14.8364 8.31308 14.8364 8.1035 14.8032 7.859V7.82407L14.8364 7.859L14.8697 7.89393C14.9362 8.17336 14.9362 8.38293 14.9362 8.59251Z" fill="white"/>
</svg>
