<?xml version="1.0" encoding="UTF-8"?>
<!DOCTYPE svg PUBLIC "-//W3C//DTD SVG 1.1//EN" "http://www.w3.org/Graphics/SVG/1.1/DTD/svg11.dtd">
<svg xmlns="http://www.w3.org/2000/svg" version="1.1" width="500px" height="500px" style="shape-rendering:geometricPrecision; text-rendering:geometricPrecision; image-rendering:optimizeQuality; fill-rule:evenodd; clip-rule:evenodd" xmlns:xlink="http://www.w3.org/1999/xlink">
<g><path style="opacity:0.997" fill="#db161b" d="M 226.5,-0.5 C 234.167,-0.5 241.833,-0.5 249.5,-0.5C 249.5,55.1667 249.5,110.833 249.5,166.5C 328.167,166.5 406.833,166.5 485.5,166.5C 492.59,185.952 497.257,205.952 499.5,226.5C 499.5,241.833 499.5,257.167 499.5,272.5C 497.257,293.048 492.59,313.048 485.5,332.5C 406.833,332.5 328.167,332.5 249.5,332.5C 249.5,388.167 249.5,443.833 249.5,499.5C 241.833,499.5 234.167,499.5 226.5,499.5C 137.308,488.34 70.8082,443.674 27,365.5C 12.0675,336.083 2.90082,305.083 -0.5,272.5C -0.5,257.167 -0.5,241.833 -0.5,226.5C 4.71901,175.752 23.3857,130.752 55.5,91.5C 55.5,94.5 55.5,97.5 55.5,100.5C 54.453,101.078 54.6197,101.744 56,102.5C 65.6667,102.5 75.3333,102.5 85,102.5C 86.6773,100.852 86.844,99.1849 85.5,97.5C 84.5,97.5 83.5,97.5 82.5,97.5C 82.5,94.8333 82.5,92.1667 82.5,89.5C 82.8333,89.5 83.1667,89.5 83.5,89.5C 83.5,89.8333 83.5,90.1667 83.5,90.5C 83.5,92.5 83.5,94.5 83.5,96.5C 86.8333,96.5 90.1667,96.5 93.5,96.5C 94.1667,96.5 94.8333,96.5 95.5,96.5C 95.5,96.8333 95.5,97.1667 95.5,97.5C 94.448,97.3505 93.448,97.5172 92.5,98C 96.9962,100.167 101.163,99.6669 105,96.5C 106.509,97.0897 108.009,97.7564 109.5,98.5C 109.968,100.134 110.968,101.3 112.5,102C 112.539,103.245 112.205,104.578 111.5,106C 111.164,107.03 110.497,107.53 109.5,107.5C 108.5,107.5 107.5,107.5 106.5,107.5C 106.5,108.833 106.5,110.167 106.5,111.5C 105.723,107.523 103.89,106.857 101,109.5C 91.4549,108.752 82.2883,108.752 73.5,109.5C 72.1667,109.5 71.5,110.167 71.5,111.5C 70.7784,111.082 70.2784,110.416 70,109.5C 69.6012,109.728 69.4346,110.062 69.5,110.5C 66.7718,110.171 64.4385,110.837 62.5,112.5C 62.1667,112.5 61.8333,112.5 61.5,112.5C 58.9521,114.038 58.9521,115.704 61.5,117.5C 61.5,118.167 61.8333,118.5 62.5,118.5C 64.2972,119.73 66.2972,120.396 68.5,120.5C 69.6715,121.345 71.0048,122.011 72.5,122.5C 72.8333,122.5 73.1667,122.5 73.5,122.5C 76.0829,122.195 78.7496,122.861 81.5,124.5C 82.8425,123.098 83.6758,123.431 84,125.5C 84.3333,125.167 84.6667,124.833 85,124.5C 89.8453,126.162 94.6786,127.495 99.5,128.5C 87.3462,138.82 75.3462,149.32 63.5,160C 64.056,160.383 64.3893,160.883 64.5,161.5C 63.5,161.5 62.5,161.5 61.5,161.5C 61.5,163.167 61.5,164.833 61.5,166.5C 57.9438,166.725 57.6105,165.892 60.5,164C 60.3333,163.5 60.1667,163 60,162.5C 57.9261,164.452 55.7594,166.285 53.5,168C 60.5111,168.496 66.8445,166.663 72.5,162.5C 75.4495,160.885 78.1162,158.885 80.5,156.5C 81.2216,156.082 81.7216,155.416 82,154.5C 84.1785,155.84 84.6785,155.507 83.5,153.5C 84.609,153.443 85.609,153.11 86.5,152.5C 87.5,152.167 88.1667,151.5 88.5,150.5C 96.8189,143.833 104.152,136.833 110.5,129.5C 112.874,127.944 115.374,127.611 118,128.5C 119.711,128.561 121.044,127.894 122,126.5C 123.049,127.517 124.216,127.684 125.5,127C 127.043,125.122 128.876,123.622 131,122.5C 131.278,123.416 131.778,124.082 132.5,124.5C 139.605,131.103 146.605,137.937 153.5,145C 156.397,147.41 159.397,149.577 162.5,151.5C 163.287,153.104 164.62,153.771 166.5,153.5C 169.185,157.183 172.518,160.183 176.5,162.5C 182.175,166.674 188.509,168.508 195.5,168C 193.241,166.285 191.074,164.452 189,162.5C 188.342,164.108 188.842,165.275 190.5,166C 189.552,166.483 188.552,166.649 187.5,166.5C 187.5,164.833 187.5,163.167 187.5,161.5C 186.5,161.5 185.5,161.5 184.5,161.5C 184.611,160.883 184.944,160.383 185.5,160C 182.961,157.63 180.628,155.13 178.5,152.5C 178.225,150.242 177.225,149.908 175.5,151.5C 174.818,150.757 174.151,150.091 173.5,149.5C 160.926,139.265 148.926,128.265 137.5,116.5C 136.167,115.833 134.833,115.167 133.5,114.5C 134.756,114.539 135.756,114.039 136.5,113C 135.167,112.333 135.167,111.667 136.5,111C 135.328,110.581 134.328,109.915 133.5,109C 134.833,108 134.833,107 133.5,106C 134.328,105.085 135.328,104.419 136.5,104C 136.5,102.667 136.5,101.333 136.5,100C 135.833,99.6667 135.167,99.3333 134.5,99C 135.416,98.7216 136.082,98.2216 136.5,97.5C 137.167,97.5 137.833,97.5 138.5,97.5C 137.588,98.7382 137.421,100.072 138,101.5C 138.997,99.6769 140.164,98.0103 141.5,96.5C 142.391,95.8902 143.391,95.5569 144.5,95.5C 144.833,97.8333 146.167,99.1667 148.5,99.5C 151.686,100.97 154.686,100.47 157.5,98C 159.712,97.2109 161.712,97.3775 163.5,98.5C 162.203,99.8488 162.37,101.182 164,102.5C 173.667,102.5 183.333,102.5 193,102.5C 194.38,101.744 194.547,101.078 193.5,100.5C 193.5,96.1667 193.5,91.8333 193.5,87.5C 193.082,86.7784 192.416,86.2784 191.5,86C 182.657,85.1764 173.99,85.3431 165.5,86.5C 164.5,86.5 163.5,86.5 162.5,86.5C 162.433,87.9587 162.766,89.2921 163.5,90.5C 160.833,90.5 158.167,90.5 155.5,90.5C 155.5,92.5 155.5,94.5 155.5,96.5C 155.5,97.8333 154.833,98.5 153.5,98.5C 154.403,95.6085 154.736,92.6085 154.5,89.5C 155.552,89.6495 156.552,89.4828 157.5,89C 155.138,87.2687 152.471,86.4354 149.5,86.5C 149.062,86.5654 148.728,86.3988 148.5,86C 149.552,84.8808 150.719,84.3808 152,84.5C 156.773,78.4899 155.273,74.3233 147.5,72C 147.728,71.6012 148.062,71.4346 148.5,71.5C 150.5,72.1667 152.5,72.8333 154.5,73.5C 155.542,74.7911 156.708,74.7911 158,73.5C 162.755,64.9905 167.255,56.3238 171.5,47.5C 171.376,46.8933 171.043,46.56 170.5,46.5C 170.5,46.1667 170.5,45.8333 170.5,45.5C 173.129,43.6062 174.795,40.9395 175.5,37.5C 172.452,34.93 170.119,35.2634 168.5,38.5C 166.6,40.6195 164.934,42.9528 163.5,45.5C 161.983,45.5106 160.816,46.1772 160,47.5C 152.969,58.3673 146.135,69.3673 139.5,80.5C 140.274,81.7112 141.107,81.7112 142,80.5C 143.008,82.259 144.508,83.4257 146.5,84C 146.272,84.3988 145.938,84.5654 145.5,84.5C 143.742,84.1231 142.075,83.4565 140.5,82.5C 140.162,84.6552 140.162,86.9885 140.5,89.5C 138.027,89.3957 137.361,88.3957 138.5,86.5C 137.478,85.646 136.645,84.646 136,83.5C 135.011,85.9698 133.845,88.3032 132.5,90.5C 128.202,91.1995 123.869,91.5328 119.5,91.5C 118.185,88.6884 116.018,86.6884 113,85.5C 112.487,86.5266 111.987,87.5266 111.5,88.5C 110.833,88.5 110.167,88.5 109.5,88.5C 108.209,88.7373 107.209,88.404 106.5,87.5C 108.185,86.8163 109.185,85.483 109.5,83.5C 109.167,83.1667 108.833,82.8333 108.5,82.5C 106.473,83.5133 104.473,84.5133 102.5,85.5C 97.5438,85.8675 92.8771,87.2009 88.5,89.5C 86.9704,89.3601 85.9704,88.6935 85.5,87.5C 85.0825,86.7784 84.4158,86.2784 83.5,86C 75.8406,85.5003 68.1739,85.3336 60.5,85.5C 67.5,76.5 75.5,68.5 84.5,61.5C 86.9084,65.3133 89.0751,69.3133 91,73.5C 92.2917,74.7911 93.4583,74.7911 94.5,73.5C 96.9538,72.7729 99.2872,71.7729 101.5,70.5C 102.738,70.81 102.738,71.31 101.5,72C 91.5839,75.6238 91.0839,80.1238 100,85.5C 103.479,83.5197 106.646,81.853 109.5,80.5C 104.307,71.4265 98.6404,62.7598 92.5,54.5C 99.9395,48.0635 107.939,42.3968 116.5,37.5C 116.973,38.9063 117.973,39.573 119.5,39.5C 123.167,42.1667 126.833,42.1667 130.5,39.5C 131.995,39.5852 132.995,38.9185 133.5,37.5C 132.233,35.6293 132.233,33.7959 133.5,32C 132.922,30.583 131.922,29.7496 130.5,29.5C 145.569,20.8074 161.569,13.9741 178.5,9C 194.424,4.71484 210.424,1.54817 226.5,-0.5 Z"/></g>
<g><path style="opacity:0.995" fill="#fefefe" d="M 249.5,-0.5 C 257.167,-0.5 264.833,-0.5 272.5,-0.5C 361.692,10.6597 428.192,55.3263 472,133.5C 477.625,144.077 482.125,155.077 485.5,166.5C 406.833,166.5 328.167,166.5 249.5,166.5C 249.5,110.833 249.5,55.1667 249.5,-0.5 Z"/></g>
<g><path style="opacity:1" fill="#f2a0a0" d="M 175.5,28.5 C 176.497,28.4701 177.164,28.9701 177.5,30C 176.02,29.9423 175.187,31.1089 175,33.5C 173.697,31.9465 173.864,30.2799 175.5,28.5 Z"/></g>
<g><path style="opacity:0.85" fill="#df3533" d="M 126.5,31.5 C 127.189,32.7736 128.023,32.7736 129,31.5C 128.207,33.5005 128.374,35.5005 129.5,37.5C 126.936,37.6294 124.269,37.296 121.5,36.5C 121.5,35.8333 121.5,35.1667 121.5,34.5C 122.899,33.1103 124.566,32.1103 126.5,31.5 Z"/></g>
<g><path style="opacity:1" fill="#fbdbdb" d="M 124.5,33.5 C 126.973,33.9473 127.14,34.9473 125,36.5C 123.272,35.6477 123.105,34.6477 124.5,33.5 Z"/></g>
<g><path style="opacity:1" fill="#f9cece" d="M 134.5,33.5 C 136.465,33.9483 136.798,34.9483 135.5,36.5C 133.481,35.8671 133.147,34.8671 134.5,33.5 Z"/></g>
<g><path style="opacity:1" fill="#f18e8c" d="M 130.5,29.5 C 131.922,29.7496 132.922,30.583 133.5,32C 132.233,33.7959 132.233,35.6293 133.5,37.5C 132.995,38.9185 131.995,39.5852 130.5,39.5C 129.662,39.1583 129.328,38.4916 129.5,37.5C 128.374,35.5005 128.207,33.5005 129,31.5C 128.023,32.7736 127.189,32.7736 126.5,31.5C 127.514,30.3263 128.847,29.6596 130.5,29.5 Z"/></g>
<g><path style="opacity:1" fill="#fce1e1" d="M 121.5,36.5 C 124.269,37.296 126.936,37.6294 129.5,37.5C 129.328,38.4916 129.662,39.1583 130.5,39.5C 126.833,42.1667 123.167,42.1667 119.5,39.5C 120.401,38.7095 121.068,37.7095 121.5,36.5 Z"/></g>
<g><path style="opacity:1" fill="#ef8684" d="M 121.5,34.5 C 121.5,35.1667 121.5,35.8333 121.5,36.5C 121.068,37.7095 120.401,38.7095 119.5,39.5C 117.973,39.573 116.973,38.9063 116.5,37.5C 117.899,36.1103 119.566,35.1103 121.5,34.5 Z"/></g>
<g><path style="opacity:1" fill="#fefafa" d="M 168.5,38.5 C 170.308,38.4914 171.975,38.9914 173.5,40C 172.361,41.7804 171.361,43.6137 170.5,45.5C 170.5,45.8333 170.5,46.1667 170.5,46.5C 166.441,53.6144 162.608,60.9477 159,68.5C 157.933,70.6917 156.433,72.3583 154.5,73.5C 152.5,72.8333 150.5,72.1667 148.5,71.5C 148.389,70.8826 148.056,70.3826 147.5,70C 152.719,61.7195 158.053,53.5529 163.5,45.5C 164.934,42.9528 166.6,40.6195 168.5,38.5 Z"/></g>
<g><path style="opacity:1" fill="#e85f5c" d="M 170.5,45.5 C 171.361,43.6137 172.361,41.7804 173.5,40C 171.975,38.9914 170.308,38.4914 168.5,38.5C 170.119,35.2634 172.452,34.93 175.5,37.5C 174.795,40.9395 173.129,43.6062 170.5,45.5 Z"/></g>
<g><path style="opacity:1" fill="#fde6e6" d="M 121.5,42.5 C 123.924,42.1924 126.257,42.5258 128.5,43.5C 127.489,47.1339 127.489,50.8006 128.5,54.5C 125.833,54.5 123.167,54.5 120.5,54.5C 121.162,50.5341 121.495,46.5341 121.5,42.5 Z"/></g>
<g><path style="opacity:1" fill="#e75e60" d="M 170.5,46.5 C 171.043,46.56 171.376,46.8933 171.5,47.5C 167.255,56.3238 162.755,64.9905 158,73.5C 156.708,74.7911 155.542,74.7911 154.5,73.5C 156.433,72.3583 157.933,70.6917 159,68.5C 162.608,60.9477 166.441,53.6144 170.5,46.5 Z"/></g>
<g><path style="opacity:0.969" fill="#fefafa" d="M 91.5,55.5 C 95.0683,60.2911 98.4016,65.2911 101.5,70.5C 99.2872,71.7729 96.9538,72.7729 94.5,73.5C 93.6236,73.6309 92.9569,73.2975 92.5,72.5C 90.1401,68.437 87.8067,64.437 85.5,60.5C 86.8908,58.1097 88.8908,56.4431 91.5,55.5 Z"/></g>
<g><path style="opacity:1" fill="#fefffe" d="M 128.5,58.5 C 125.833,58.5 123.167,58.5 120.5,58.5C 120.5,57.5 120.5,56.5 120.5,55.5C 123.167,55.5 125.833,55.5 128.5,55.5C 128.5,56.5 128.5,57.5 128.5,58.5 Z"/></g>
<g><path style="opacity:1" fill="#fde6e6" d="M 120.5,58.5 C 123.167,58.5 125.833,58.5 128.5,58.5C 129.234,59.7079 129.567,61.0413 129.5,62.5C 126.167,62.5 122.833,62.5 119.5,62.5C 119.433,61.0413 119.766,59.7079 120.5,58.5 Z"/></g>
<g><path style="opacity:1" fill="#f3a6a6" d="M 119.5,62.5 C 122.833,62.5 126.167,62.5 129.5,62.5C 129.511,64.0174 130.177,65.1841 131.5,66C 130.975,66.6924 130.308,67.1924 129.5,67.5C 126.256,64.9566 123.089,64.9566 120,67.5C 119.25,66.8742 118.416,66.3742 117.5,66C 118.823,65.1841 119.489,64.0174 119.5,62.5 Z"/></g>
<g><path style="opacity:1" fill="#fdeaea" d="M 123.5,66.5 C 128.908,68.7946 128.574,70.1279 122.5,70.5C 122.433,69.0413 122.766,67.7079 123.5,66.5 Z"/></g>
<g><path style="opacity:1" fill="#fcd9d8" d="M 112.5,68.5 C 114.465,68.9483 114.798,69.9483 113.5,71.5C 112.614,70.675 112.281,69.675 112.5,68.5 Z"/></g>
<g><path style="opacity:1" fill="#fefffe" d="M 116.5,68.5 C 118.337,68.6395 118.67,69.3061 117.5,70.5C 116.702,70.0431 116.369,69.3764 116.5,68.5 Z"/></g>
<g><path style="opacity:1" fill="#fce3e3" d="M 130.5,68.5 C 131.675,68.281 132.675,68.6143 133.5,69.5C 131.948,70.7979 130.948,70.4646 130.5,68.5 Z"/></g>
<g><path style="opacity:1" fill="#fdeded" d="M 135.5,68.5 C 136.776,69.3864 136.776,70.3864 135.5,71.5C 134.913,70.7666 134.913,69.7666 135.5,68.5 Z"/></g>
<g><path style="opacity:1" fill="#e86769" d="M 85.5,60.5 C 87.8067,64.437 90.1401,68.437 92.5,72.5C 92.9569,73.2975 93.6236,73.6309 94.5,73.5C 93.4583,74.7911 92.2917,74.7911 91,73.5C 89.0751,69.3133 86.9084,65.3133 84.5,61.5C 84.5,60.8333 84.8333,60.5 85.5,60.5 Z"/></g>
<g><path style="opacity:1" fill="#e96665" d="M 91.5,55.5 C 91.5,54.8333 91.8333,54.5 92.5,54.5C 98.6404,62.7598 104.307,71.4265 109.5,80.5C 106.646,81.853 103.479,83.5197 100,85.5C 91.0839,80.1238 91.5839,75.6238 101.5,72C 102.738,71.31 102.738,70.81 101.5,70.5C 98.4016,65.2911 95.0683,60.2911 91.5,55.5 Z"/></g>
<g><path style="opacity:1" fill="#e96665" d="M 163.5,45.5 C 158.053,53.5529 152.719,61.7195 147.5,70C 148.056,70.3826 148.389,70.8826 148.5,71.5C 148.062,71.4346 147.728,71.6012 147.5,72C 155.273,74.3233 156.773,78.4899 152,84.5C 150.719,84.3808 149.552,84.8808 148.5,86C 148.728,86.3988 149.062,86.5654 149.5,86.5C 148.833,87.1667 148.167,87.8333 147.5,88.5C 145.158,88.2252 145.158,87.3919 147.5,86C 146.584,85.7216 145.918,85.2216 145.5,84.5C 145.938,84.5654 146.272,84.3988 146.5,84C 144.508,83.4257 143.008,82.259 142,80.5C 141.107,81.7112 140.274,81.7112 139.5,80.5C 146.135,69.3673 152.969,58.3673 160,47.5C 160.816,46.1772 161.983,45.5106 163.5,45.5 Z"/></g>
<g><path style="opacity:1" fill="#f08582" d="M 135.5,72.5 C 137.3,73.8948 137.634,75.5615 136.5,77.5C 135.692,77.1924 135.025,76.6924 134.5,76C 135.337,74.9887 135.67,73.8221 135.5,72.5 Z"/></g>
<g><path style="opacity:1" fill="#ee8787" d="M 112.5,80.5 C 120.55,80.2024 128.55,80.5357 136.5,81.5C 135.975,82.1924 135.308,82.6924 134.5,83C 128.167,83.6667 121.833,83.6667 115.5,83C 113.881,82.7645 112.881,81.9311 112.5,80.5 Z"/></g>
<g><path style="opacity:1" fill="#fdf2f3" d="M 106.5,87.5 C 104.847,87.3404 103.514,86.6737 102.5,85.5C 104.473,84.5133 106.473,83.5133 108.5,82.5C 108.833,82.8333 109.167,83.1667 109.5,83.5C 109.185,85.483 108.185,86.8163 106.5,87.5 Z"/></g>
<g><path style="opacity:1" fill="#fdeaea" d="M 145.5,84.5 C 145.918,85.2216 146.584,85.7216 147.5,86C 145.158,87.3919 145.158,88.2252 147.5,88.5C 147.167,89.1667 146.833,89.8333 146.5,90.5C 144.456,90.2004 142.456,89.867 140.5,89.5C 140.162,86.9885 140.162,84.6552 140.5,82.5C 142.075,83.4565 143.742,84.1231 145.5,84.5 Z"/></g>
<g><path style="opacity:1" fill="#e8676a" d="M 59.5,86.5 C 59.5,85.8333 59.8333,85.5 60.5,85.5C 68.1739,85.3336 75.8406,85.5003 83.5,86C 84.4158,86.2784 85.0825,86.7784 85.5,87.5C 84.8333,88.1667 84.1667,88.8333 83.5,89.5C 83.5,89.1667 83.5,88.8333 83.5,88.5C 83.3893,87.8826 83.056,87.3826 82.5,87C 74.6916,86.9517 67.0249,86.785 59.5,86.5 Z"/></g>
<g><path style="opacity:1" fill="#e8696c" d="M 193.5,87.5 C 192.778,87.9175 192.278,88.5842 192,89.5C 191.601,89.2716 191.435,88.9382 191.5,88.5C 191.389,87.8826 191.056,87.3826 190.5,87C 189,86.8333 187.5,86.6667 186,86.5C 179.23,86.3957 172.397,86.729 165.5,87.5C 165.5,87.1667 165.5,86.8333 165.5,86.5C 173.99,85.3431 182.657,85.1764 191.5,86C 192.416,86.2784 193.082,86.7784 193.5,87.5 Z"/></g>
<g><path style="opacity:1" fill="#df3336" d="M 59.5,86.5 C 67.0249,86.785 74.6916,86.9517 82.5,87C 83.056,87.3826 83.3893,87.8826 83.5,88.5C 75.1667,88.5 66.8333,88.5 58.5,88.5C 58.1667,88.5 57.8333,88.5 57.5,88.5C 57.8333,87.5 58.5,86.8333 59.5,86.5 Z"/></g>
<g><path style="opacity:1" fill="#f6aead" d="M 102.5,85.5 C 103.514,86.6737 104.847,87.3404 106.5,87.5C 107.209,88.404 108.209,88.7373 109.5,88.5C 110.13,90.7486 109.797,93.0819 108.5,95.5C 107.984,92.7494 106.817,90.4161 105,88.5C 103.698,89.0848 102.531,89.7515 101.5,90.5C 101.167,90.5 100.833,90.5 100.5,90.5C 99.4479,88.744 97.7812,88.0773 95.5,88.5C 95.5,91.1667 95.5,93.8333 95.5,96.5C 94.8333,96.5 94.1667,96.5 93.5,96.5C 93.5,94.5 93.5,92.5 93.5,90.5C 90.1667,90.5 86.8333,90.5 83.5,90.5C 83.5,90.1667 83.5,89.8333 83.5,89.5C 84.1667,88.8333 84.8333,88.1667 85.5,87.5C 85.9704,88.6935 86.9704,89.3601 88.5,89.5C 92.8771,87.2009 97.5438,85.8675 102.5,85.5 Z"/></g>
<g><path style="opacity:1" fill="#df3236" d="M 191.5,88.5 C 191.167,88.5 190.833,88.5 190.5,88.5C 182.5,88.5 174.5,88.5 166.5,88.5C 166.167,88.5 165.833,88.5 165.5,88.5C 165.5,88.1667 165.5,87.8333 165.5,87.5C 172.397,86.729 179.23,86.3957 186,86.5C 187.5,86.6667 189,86.8333 190.5,87C 191.056,87.3826 191.389,87.8826 191.5,88.5 Z"/></g>
<g><path style="opacity:0.982" fill="#fef9f9" d="M 57.5,88.5 C 57.8333,88.5 58.1667,88.5 58.5,88.5C 60.9686,89.3171 63.6353,89.8171 66.5,90C 64.213,92.0483 64.0464,94.2149 66,96.5C 66.69,97.7383 67.19,97.7383 67.5,96.5C 67.8333,96.5 68.1667,96.5 68.5,96.5C 70.0311,97.9245 69.6977,98.5912 67.5,98.5C 63.2273,98.081 59.2273,98.7476 55.5,100.5C 55.5,97.5 55.5,94.5 55.5,91.5C 55.9321,90.2905 56.5987,89.2905 57.5,88.5 Z"/></g>
<g><path style="opacity:1" fill="#fefefe" d="M 100.5,90.5 C 100.662,92.5273 100.495,94.5273 100,96.5C 98.6439,97.3802 97.1439,97.7135 95.5,97.5C 95.5,97.1667 95.5,96.8333 95.5,96.5C 95.5,93.8333 95.5,91.1667 95.5,88.5C 97.7812,88.0773 99.4479,88.744 100.5,90.5 Z"/></g>
<g><path style="opacity:1" fill="#fefafa" d="M 193.5,87.5 C 193.5,91.8333 193.5,96.1667 193.5,100.5C 189.097,98.7006 184.43,98.034 179.5,98.5C 179.833,97.8333 180.167,97.1667 180.5,96.5C 180.833,96.5 181.167,96.5 181.5,96.5C 181.435,96.9382 181.601,97.2716 182,97.5C 184.954,95.1254 185.12,92.6254 182.5,90C 185.365,89.8171 188.031,89.3171 190.5,88.5C 190.833,88.5 191.167,88.5 191.5,88.5C 191.435,88.9382 191.601,89.2716 192,89.5C 192.278,88.5842 192.778,87.9175 193.5,87.5 Z"/></g>
<g><path style="opacity:1" fill="#fefbfb" d="M 82.5,89.5 C 82.5,92.1667 82.5,94.8333 82.5,97.5C 83.5,97.5 84.5,97.5 85.5,97.5C 85.506,100.548 84.506,101.048 82.5,99C 79.5184,98.502 76.5184,98.3354 73.5,98.5C 72.6236,98.6309 71.9569,98.2975 71.5,97.5C 72.2624,97.0894 73.2624,96.9227 74.5,97C 76.4549,93.8616 75.4549,91.5282 71.5,90C 75.1516,89.5014 78.8183,89.3347 82.5,89.5 Z"/></g>
<g><path style="opacity:1" fill="#f09191" d="M 119.5,91.5 C 119.5,92.5 119.5,93.5 119.5,94.5C 122.167,94.5 124.833,94.5 127.5,94.5C 124.695,95.3195 121.695,95.8195 118.5,96C 117.003,98.207 115.003,98.8736 112.5,98C 113.056,97.6174 113.389,97.1174 113.5,96.5C 114.748,95.6661 115.415,94.3328 115.5,92.5C 115.167,91.1667 114.833,89.8333 114.5,88.5C 113.817,88.8627 113.15,89.1961 112.5,89.5C 111.833,89.5 111.5,89.1667 111.5,88.5C 111.987,87.5266 112.487,86.5266 113,85.5C 116.018,86.6884 118.185,88.6884 119.5,91.5 Z"/></g>
<g><path style="opacity:1" fill="#fef7f8" d="M 136.5,89.5 C 136.5,91.8333 136.5,94.1667 136.5,96.5C 135.833,96.5 135.167,96.5 134.5,96.5C 133.99,93.6122 134.656,91.2789 136.5,89.5 Z"/></g>
<g><path style="opacity:1" fill="#fef6f6" d="M 154.5,89.5 C 154.736,92.6085 154.403,95.6085 153.5,98.5C 152.167,98.5 150.833,98.5 149.5,98.5C 149.047,97.5416 148.381,96.7083 147.5,96C 148.113,93.8526 148.779,91.686 149.5,89.5C 151.128,88.4647 152.795,88.4647 154.5,89.5 Z"/></g>
<g><path style="opacity:1" fill="#fefcfc" d="M 165.5,88.5 C 165.833,88.5 166.167,88.5 166.5,88.5C 169.977,89.3227 173.644,89.8227 177.5,90C 173.165,91.5067 172.498,94.0067 175.5,97.5C 176.396,96.4937 177.062,96.4937 177.5,97.5C 177.043,98.2975 176.376,98.6309 175.5,98.5C 172.061,98.2529 168.728,98.5863 165.5,99.5C 166.833,95.8333 166.833,92.1667 165.5,88.5 Z"/></g>
<g><path style="opacity:1" fill="#fefffe" d="M 83.5,90.5 C 86.8333,90.5 90.1667,90.5 93.5,90.5C 93.5,92.5 93.5,94.5 93.5,96.5C 90.1667,96.5 86.8333,96.5 83.5,96.5C 83.5,94.5 83.5,92.5 83.5,90.5 Z"/></g>
<g><path style="opacity:1" fill="#fefffe" d="M 163.5,90.5 C 164.461,92.2646 164.795,94.2646 164.5,96.5C 161.5,96.5 158.5,96.5 155.5,96.5C 155.5,94.5 155.5,92.5 155.5,90.5C 158.167,90.5 160.833,90.5 163.5,90.5 Z"/></g>
<g><path style="opacity:1" fill="#f19999" d="M 165.5,86.5 C 165.5,86.8333 165.5,87.1667 165.5,87.5C 165.5,87.8333 165.5,88.1667 165.5,88.5C 166.833,92.1667 166.833,95.8333 165.5,99.5C 164.377,100.757 163.711,100.424 163.5,98.5C 161.712,97.3775 159.712,97.2109 157.5,98C 154.686,100.47 151.686,100.97 148.5,99.5C 149.167,99.5 149.5,99.1667 149.5,98.5C 150.833,98.5 152.167,98.5 153.5,98.5C 154.833,98.5 155.5,97.8333 155.5,96.5C 158.5,96.5 161.5,96.5 164.5,96.5C 164.795,94.2646 164.461,92.2646 163.5,90.5C 162.766,89.2921 162.433,87.9587 162.5,86.5C 163.5,86.5 164.5,86.5 165.5,86.5 Z"/></g>
<g><path style="opacity:1" fill="#f29d9e" d="M 58.5,88.5 C 66.8333,88.5 75.1667,88.5 83.5,88.5C 83.5,88.8333 83.5,89.1667 83.5,89.5C 83.1667,89.5 82.8333,89.5 82.5,89.5C 78.8183,89.3347 75.1516,89.5014 71.5,90C 75.4549,91.5282 76.4549,93.8616 74.5,97C 73.2624,96.9227 72.2624,97.0894 71.5,97.5C 71.9569,98.2975 72.6236,98.6309 73.5,98.5C 71.5,99.8333 69.5,99.8333 67.5,98.5C 69.6977,98.5912 70.0311,97.9245 68.5,96.5C 73.516,94.8195 73.6826,92.8195 69,90.5C 67.872,92.3453 67.372,94.3453 67.5,96.5C 67.19,97.7383 66.69,97.7383 66,96.5C 64.0464,94.2149 64.213,92.0483 66.5,90C 63.6353,89.8171 60.9686,89.3171 58.5,88.5 Z"/></g>
<g><path style="opacity:1" fill="#dd2827" d="M 68.5,96.5 C 68.1667,96.5 67.8333,96.5 67.5,96.5C 67.372,94.3453 67.872,92.3453 69,90.5C 73.6826,92.8195 73.516,94.8195 68.5,96.5 Z"/></g>
<g><path style="opacity:1" fill="#ef8d8d" d="M 149.5,86.5 C 152.471,86.4354 155.138,87.2687 157.5,89C 156.552,89.4828 155.552,89.6495 154.5,89.5C 152.795,88.4647 151.128,88.4647 149.5,89.5C 148.779,91.686 148.113,93.8526 147.5,96C 148.381,96.7083 149.047,97.5416 149.5,98.5C 147.646,97.759 145.979,96.759 144.5,95.5C 143.391,95.5569 142.391,95.8902 141.5,96.5C 141.565,96.0618 141.399,95.7284 141,95.5C 140.292,96.3805 139.458,97.0472 138.5,97.5C 137.833,97.5 137.167,97.5 136.5,97.5C 136.5,97.1667 136.5,96.8333 136.5,96.5C 136.5,94.1667 136.5,91.8333 136.5,89.5C 137.167,90.1667 137.833,90.8333 138.5,91.5C 138.5,92.5 138.5,93.5 138.5,94.5C 141.167,94.5 143.833,94.5 146.5,94.5C 146.5,93.5 146.5,92.5 146.5,91.5C 147.833,91.1667 147.833,90.8333 146.5,90.5C 146.833,89.8333 147.167,89.1667 147.5,88.5C 148.167,87.8333 148.833,87.1667 149.5,86.5 Z"/></g>
<g><path style="opacity:1" fill="#fefffe" d="M 138.5,91.5 C 141.167,91.5 143.833,91.5 146.5,91.5C 146.5,92.5 146.5,93.5 146.5,94.5C 143.833,94.5 141.167,94.5 138.5,94.5C 138.5,93.5 138.5,92.5 138.5,91.5 Z"/></g>
<g><path style="opacity:1" fill="#fbe1e1" d="M 144.5,95.5 C 145.979,96.759 147.646,97.759 149.5,98.5C 149.5,99.1667 149.167,99.5 148.5,99.5C 146.167,99.1667 144.833,97.8333 144.5,95.5 Z"/></g>
<g><path style="opacity:1" fill="#f19c9d" d="M 166.5,88.5 C 174.5,88.5 182.5,88.5 190.5,88.5C 188.031,89.3171 185.365,89.8171 182.5,90C 185.12,92.6254 184.954,95.1254 182,97.5C 181.601,97.2716 181.435,96.9382 181.5,96.5C 181.788,90.4967 180.121,89.4967 176.5,93.5C 177.467,94.984 178.8,95.984 180.5,96.5C 180.167,97.1667 179.833,97.8333 179.5,98.5C 178.167,99.8333 176.833,99.8333 175.5,98.5C 176.376,98.6309 177.043,98.2975 177.5,97.5C 177.062,96.4937 176.396,96.4937 175.5,97.5C 172.498,94.0067 173.165,91.5067 177.5,90C 173.644,89.8227 169.977,89.3227 166.5,88.5 Z"/></g>
<g><path style="opacity:1" fill="#dd2526" d="M 181.5,96.5 C 181.167,96.5 180.833,96.5 180.5,96.5C 178.8,95.984 177.467,94.984 176.5,93.5C 180.121,89.4967 181.788,90.4967 181.5,96.5 Z"/></g>
<g><path style="opacity:1" fill="#fce4e4" d="M 141.5,96.5 C 140.164,98.0103 138.997,99.6769 138,101.5C 137.421,100.072 137.588,98.7382 138.5,97.5C 139.458,97.0472 140.292,96.3805 141,95.5C 141.399,95.7284 141.565,96.0618 141.5,96.5 Z"/></g>
<g><path style="opacity:1" fill="#e44e4e" d="M 85.5,97.5 C 86.844,99.1849 86.6773,100.852 85,102.5C 75.3333,102.5 65.6667,102.5 56,102.5C 54.6197,101.744 54.453,101.078 55.5,100.5C 59.2273,98.7476 63.2273,98.081 67.5,98.5C 69.5,99.8333 71.5,99.8333 73.5,98.5C 76.5184,98.3354 79.5184,98.502 82.5,99C 84.506,101.048 85.506,100.548 85.5,97.5 Z"/></g>
<g><path style="opacity:1" fill="#e44f4e" d="M 163.5,98.5 C 163.711,100.424 164.377,100.757 165.5,99.5C 168.728,98.5863 172.061,98.2529 175.5,98.5C 176.833,99.8333 178.167,99.8333 179.5,98.5C 184.43,98.034 189.097,98.7006 193.5,100.5C 194.547,101.078 194.38,101.744 193,102.5C 183.333,102.5 173.667,102.5 164,102.5C 162.37,101.182 162.203,99.8488 163.5,98.5 Z"/></g>
<g><path style="opacity:1" fill="#e75b58" d="M 140.5,89.5 C 142.456,89.867 144.456,90.2004 146.5,90.5C 147.833,90.8333 147.833,91.1667 146.5,91.5C 143.833,91.5 141.167,91.5 138.5,91.5C 137.833,90.8333 137.167,90.1667 136.5,89.5C 134.656,91.2789 133.99,93.6122 134.5,96.5C 133.448,96.3505 132.448,96.5172 131.5,97C 132.634,98.016 132.301,98.6827 130.5,99C 133.167,99.6667 133.167,100.333 130.5,101C 133.167,101.667 133.167,102.333 130.5,103C 133.167,103.667 133.167,104.333 130.5,105C 133.084,106.994 132.918,107.494 130,106.5C 129.05,107.022 128.216,107.689 127.5,108.5C 126.667,107.5 125.833,106.5 125,105.5C 124.309,107.891 123.309,107.891 122,105.5C 121.626,106.416 121.126,107.25 120.5,108C 123.167,110 125.833,112 128.5,114C 125.833,114.667 125.833,115.333 128.5,116C 126.099,116.805 126.266,117.638 129,118.5C 129.5,118 130,117.5 130.5,117C 130.5,114.333 130.5,111.667 130.5,109C 130.833,108.833 131.167,108.667 131.5,108.5C 132.228,110.193 133.228,111.693 134.5,113C 133.944,113.383 133.611,113.883 133.5,114.5C 134.833,115.167 136.167,115.833 137.5,116.5C 134.233,118.045 133.566,120.378 135.5,123.5C 134.031,120.9 133.031,121.233 132.5,124.5C 131.778,124.082 131.278,123.416 131,122.5C 128.876,123.622 127.043,125.122 125.5,127C 124.216,127.684 123.049,127.517 122,126.5C 121.044,127.894 119.711,128.561 118,128.5C 115.374,127.611 112.874,127.944 110.5,129.5C 108.396,129.201 106.396,129.534 104.5,130.5C 103.06,131.952 101.394,132.952 99.5,133.5C 101.401,132.065 101.734,130.398 100.5,128.5C 102.305,127.763 103.971,126.763 105.5,125.5C 105.023,124.522 104.357,123.689 103.5,123C 104.833,119.667 104.833,116.333 103.5,113C 104.816,112.472 105.483,112.972 105.5,114.5C 105.669,119.181 106.002,123.848 106.5,128.5C 107.5,128.5 108.5,128.5 109.5,128.5C 109.5,121.5 109.5,114.5 109.5,107.5C 110.497,107.53 111.164,107.03 111.5,106C 112.205,104.578 112.539,103.245 112.5,102C 110.968,101.3 109.968,100.134 109.5,98.5C 108.009,97.7564 106.509,97.0897 105,96.5C 101.163,99.6669 96.9962,100.167 92.5,98C 93.448,97.5172 94.448,97.3505 95.5,97.5C 97.1439,97.7135 98.6439,97.3802 100,96.5C 100.495,94.5273 100.662,92.5273 100.5,90.5C 100.833,90.5 101.167,90.5 101.5,90.5C 102.531,89.7515 103.698,89.0848 105,88.5C 106.817,90.4161 107.984,92.7494 108.5,95.5C 109.797,93.0819 110.13,90.7486 109.5,88.5C 110.167,88.5 110.833,88.5 111.5,88.5C 111.5,89.1667 111.833,89.5 112.5,89.5C 112.198,92.0593 112.532,94.3926 113.5,96.5C 113.389,97.1174 113.056,97.6174 112.5,98C 115.003,98.8736 117.003,98.207 118.5,96C 121.695,95.8195 124.695,95.3195 127.5,94.5C 129.379,95.3414 131.379,95.6747 133.5,95.5C 133.784,93.5853 133.451,91.9187 132.5,90.5C 133.845,88.3032 135.011,85.9698 136,83.5C 136.645,84.646 137.478,85.646 138.5,86.5C 137.361,88.3957 138.027,89.3957 140.5,89.5 Z"/></g>
<g><path style="opacity:1" fill="#fef3f3" d="M 132.5,90.5 C 133.451,91.9187 133.784,93.5853 133.5,95.5C 131.379,95.6747 129.379,95.3414 127.5,94.5C 124.833,94.5 122.167,94.5 119.5,94.5C 119.5,93.5 119.5,92.5 119.5,91.5C 123.869,91.5328 128.202,91.1995 132.5,90.5 Z"/></g>
<g><path style="opacity:1" fill="#fefefe" d="M 101.5,90.5 C 103.167,90.5 104.833,90.5 106.5,90.5C 106.5,92.1667 106.5,93.8333 106.5,95.5C 104.833,95.5 103.167,95.5 101.5,95.5C 101.5,93.8333 101.5,92.1667 101.5,90.5 Z"/></g>
<g><path style="opacity:1" fill="#fefbfc" d="M 113.5,96.5 C 112.532,94.3926 112.198,92.0593 112.5,89.5C 113.15,89.1961 113.817,88.8627 114.5,88.5C 114.833,89.8333 115.167,91.1667 115.5,92.5C 115.415,94.3328 114.748,95.6661 113.5,96.5 Z"/></g>
<g><path style="opacity:1" fill="#fdf0f0" d="M 109.5,107.5 C 109.5,114.5 109.5,121.5 109.5,128.5C 108.5,128.5 107.5,128.5 106.5,128.5C 106.002,123.848 105.669,119.181 105.5,114.5C 106.404,113.791 106.737,112.791 106.5,111.5C 106.5,110.167 106.5,108.833 106.5,107.5C 107.5,107.5 108.5,107.5 109.5,107.5 Z"/></g>
<g><path style="opacity:1" fill="#e96b69" d="M 134.5,96.5 C 135.167,96.5 135.833,96.5 136.5,96.5C 136.5,96.8333 136.5,97.1667 136.5,97.5C 136.082,98.2216 135.416,98.7216 134.5,99C 135.167,99.3333 135.833,99.6667 136.5,100C 136.5,101.333 136.5,102.667 136.5,104C 135.328,104.419 134.328,105.085 133.5,106C 134.833,107 134.833,108 133.5,109C 134.328,109.915 135.328,110.581 136.5,111C 135.167,111.667 135.167,112.333 136.5,113C 135.756,114.039 134.756,114.539 133.5,114.5C 133.611,113.883 133.944,113.383 134.5,113C 133.228,111.693 132.228,110.193 131.5,108.5C 131.167,108.667 130.833,108.833 130.5,109C 130.5,111.667 130.5,114.333 130.5,117C 130,117.5 129.5,118 129,118.5C 126.266,117.638 126.099,116.805 128.5,116C 125.833,115.333 125.833,114.667 128.5,114C 125.833,112 123.167,110 120.5,108C 121.126,107.25 121.626,106.416 122,105.5C 123.309,107.891 124.309,107.891 125,105.5C 125.833,106.5 126.667,107.5 127.5,108.5C 128.216,107.689 129.05,107.022 130,106.5C 132.918,107.494 133.084,106.994 130.5,105C 133.167,104.333 133.167,103.667 130.5,103C 133.167,102.333 133.167,101.667 130.5,101C 133.167,100.333 133.167,99.6667 130.5,99C 132.301,98.6827 132.634,98.016 131.5,97C 132.448,96.5172 133.448,96.3505 134.5,96.5 Z"/></g>
<g><path style="opacity:1" fill="#fef9f9" d="M 73.5,109.5 C 74.895,112.516 76.2283,115.683 77.5,119C 76.2642,120.388 74.9308,121.554 73.5,122.5C 73.1667,122.5 72.8333,122.5 72.5,122.5C 71.6561,118.901 71.3227,115.234 71.5,111.5C 71.5,110.167 72.1667,109.5 73.5,109.5 Z"/></g>
<g><path style="opacity:1" fill="#fde9e9" d="M 69.5,110.5 C 69.1667,111.167 68.8333,111.833 68.5,112.5C 66.9826,112.511 65.8159,113.177 65,114.5C 64.2917,113.619 63.4584,112.953 62.5,112.5C 64.4385,110.837 66.7718,110.171 69.5,110.5 Z"/></g>
<g><path style="opacity:1" fill="#fdefef" d="M 61.5,112.5 C 61.9528,113.458 62.6195,114.292 63.5,115C 62.6195,115.708 61.9528,116.542 61.5,117.5C 58.9521,115.704 58.9521,114.038 61.5,112.5 Z"/></g>
<g><path style="opacity:1" fill="#fef9f9" d="M 68.5,112.5 C 69.6935,112.97 70.3601,113.97 70.5,115.5C 70.3333,116.5 70.1667,117.5 70,118.5C 69.1841,117.177 68.0174,116.511 66.5,116.5C 66.7329,114.938 67.3995,113.605 68.5,112.5 Z"/></g>
<g><path style="opacity:1" fill="#eb7474" d="M 61.5,112.5 C 61.8333,112.5 62.1667,112.5 62.5,112.5C 63.4584,112.953 64.2917,113.619 65,114.5C 65.8159,113.177 66.9826,112.511 68.5,112.5C 67.3995,113.605 66.7329,114.938 66.5,116.5C 64.6783,115.571 63.3449,116.238 62.5,118.5C 61.8333,118.5 61.5,118.167 61.5,117.5C 61.9528,116.542 62.6195,115.708 63.5,115C 62.6195,114.292 61.9528,113.458 61.5,112.5 Z"/></g>
<g><path style="opacity:1" fill="#f29492" d="M 106.5,111.5 C 106.737,112.791 106.404,113.791 105.5,114.5C 105.483,112.972 104.816,112.472 103.5,113C 104.833,116.333 104.833,119.667 103.5,123C 104.357,123.689 105.023,124.522 105.5,125.5C 103.971,126.763 102.305,127.763 100.5,128.5C 100.167,128.5 99.8333,128.5 99.5,128.5C 94.6786,127.495 89.8453,126.162 85,124.5C 84.6667,124.833 84.3333,125.167 84,125.5C 83.6758,123.431 82.8425,123.098 81.5,124.5C 78.7496,122.861 76.0829,122.195 73.5,122.5C 74.9308,121.554 76.2642,120.388 77.5,119C 76.2283,115.683 74.895,112.516 73.5,109.5C 82.2883,108.752 91.4549,108.752 101,109.5C 103.89,106.857 105.723,107.523 106.5,111.5 Z"/></g>
<g><path style="opacity:1" fill="#fde6e6" d="M 66.5,116.5 C 67.2899,117.794 68.2899,118.961 69.5,120C 69.2716,120.399 68.9382,120.565 68.5,120.5C 66.2972,120.396 64.2972,119.73 62.5,118.5C 63.3449,116.238 64.6783,115.571 66.5,116.5 Z"/></g>
<g><path style="opacity:1" fill="#ee8686" d="M 71.5,111.5 C 71.3227,115.234 71.6561,118.901 72.5,122.5C 71.0048,122.011 69.6715,121.345 68.5,120.5C 68.9382,120.565 69.2716,120.399 69.5,120C 68.2899,118.961 67.2899,117.794 66.5,116.5C 68.0174,116.511 69.1841,117.177 70,118.5C 70.1667,117.5 70.3333,116.5 70.5,115.5C 70.3601,113.97 69.6935,112.97 68.5,112.5C 68.8333,111.833 69.1667,111.167 69.5,110.5C 69.4346,110.062 69.6012,109.728 70,109.5C 70.2784,110.416 70.7784,111.082 71.5,111.5 Z"/></g>
<g><path style="opacity:1" fill="#fdeeee" d="M 99.5,128.5 C 99.8333,128.5 100.167,128.5 100.5,128.5C 101.734,130.398 101.401,132.065 99.5,133.5C 101.394,132.952 103.06,131.952 104.5,130.5C 106.396,129.534 108.396,129.201 110.5,129.5C 104.152,136.833 96.8189,143.833 88.5,150.5C 87.596,149.791 87.2627,148.791 87.5,147.5C 90.1085,147.394 92.1085,146.228 93.5,144C 92.5838,143.626 91.7504,143.126 91,142.5C 90.6905,143.766 90.1905,144.933 89.5,146C 87.8739,145.805 86.2072,145.805 84.5,146C 85.3802,147.356 85.7135,148.856 85.5,150.5C 84.0695,150.579 82.7362,150.246 81.5,149.5C 80.7492,150.376 80.2492,151.376 80,152.5C 77.7904,151.251 75.6237,151.418 73.5,153C 74.448,153.483 75.448,153.649 76.5,153.5C 75.0484,154.302 73.3817,154.802 71.5,155C 73.0778,156.14 74.7445,156.64 76.5,156.5C 75.675,157.386 74.675,157.719 73.5,157.5C 73.7373,158.791 73.404,159.791 72.5,160.5C 72.1632,156.161 70.4965,155.494 67.5,158.5C 66.8999,159.9 65.8999,160.9 64.5,161.5C 64.3893,160.883 64.056,160.383 63.5,160C 75.3462,149.32 87.3462,138.82 99.5,128.5 Z"/></g>
<g><path style="opacity:1" fill="#fdf2f2" d="M 137.5,116.5 C 148.926,128.265 160.926,139.265 173.5,149.5C 172.816,151.185 171.483,152.185 169.5,152.5C 168.887,151.02 168.554,149.687 168.5,148.5C 166.878,150.439 165.044,150.772 163,149.5C 162.493,148.004 162.993,146.837 164.5,146C 163.093,144.548 161.593,144.715 160,146.5C 159.617,145.944 159.117,145.611 158.5,145.5C 158.821,147.048 159.821,147.715 161.5,147.5C 161.433,148.959 161.766,150.292 162.5,151.5C 159.397,149.577 156.397,147.41 153.5,145C 146.605,137.937 139.605,131.103 132.5,124.5C 133.031,121.233 134.031,120.9 135.5,123.5C 133.566,120.378 134.233,118.045 137.5,116.5 Z"/></g>
<g><path style="opacity:1" fill="#e96967" d="M 135.5,123.5 C 136.94,124.363 138.274,124.363 139.5,123.5C 140.893,124.863 142.559,125.696 144.5,126C 145.376,127.585 146.709,128.585 148.5,129C 147.419,130.711 147.752,132.211 149.5,133.5C 146.033,132.758 144.033,130.591 143.5,127C 140.208,126.996 137.542,125.83 135.5,123.5 Z"/></g>
<g><path style="opacity:1" fill="#e96969" d="M 149.5,133.5 C 150.404,134.209 150.737,135.209 150.5,136.5C 153.044,136.104 155.211,136.771 157,138.5C 157.699,140.074 157.365,141.407 156,142.5C 155.727,140.899 155.227,139.399 154.5,138C 152.423,137.808 150.423,137.308 148.5,136.5C 149.127,135.583 149.461,134.583 149.5,133.5 Z"/></g>
<g><path style="opacity:1" fill="#eb7372" d="M 99.5,133.5 C 99.5394,134.583 99.8728,135.583 100.5,136.5C 98.5767,137.308 96.5767,137.808 94.5,138C 93.7734,139.399 93.2734,140.899 93,142.5C 90.9851,140.522 91.1517,138.688 93.5,137C 95.1341,136.506 96.8008,136.34 98.5,136.5C 98.2627,135.209 98.596,134.209 99.5,133.5 Z"/></g>
<g><path style="opacity:1" fill="#e44f51" d="M 158.5,145.5 C 154.971,144.703 154.805,143.703 158,142.5C 158.483,143.448 158.649,144.448 158.5,145.5 Z"/></g>
<g><path style="opacity:1" fill="#ea6a69" d="M 88.5,150.5 C 88.1667,151.5 87.5,152.167 86.5,152.5C 85.0536,151.387 83.3869,151.22 81.5,152C 82.0442,152.717 82.7109,153.217 83.5,153.5C 84.6785,155.507 84.1785,155.84 82,154.5C 81.7216,155.416 81.2216,156.082 80.5,156.5C 79.7886,154.799 78.4553,153.799 76.5,153.5C 75.448,153.649 74.448,153.483 73.5,153C 75.6237,151.418 77.7904,151.251 80,152.5C 80.2492,151.376 80.7492,150.376 81.5,149.5C 82.7362,150.246 84.0695,150.579 85.5,150.5C 85.7135,148.856 85.3802,147.356 84.5,146C 86.2072,145.805 87.8739,145.805 89.5,146C 90.1905,144.933 90.6905,143.766 91,142.5C 91.7504,143.126 92.5838,143.626 93.5,144C 92.1085,146.228 90.1085,147.394 87.5,147.5C 87.2627,148.791 87.596,149.791 88.5,150.5 Z"/></g>
<g><path style="opacity:1" fill="#fdf3f3" d="M 86.5,152.5 C 85.609,153.11 84.609,153.443 83.5,153.5C 82.7109,153.217 82.0442,152.717 81.5,152C 83.3869,151.22 85.0536,151.387 86.5,152.5 Z"/></g>
<g><path style="opacity:1" fill="#fdf3f3" d="M 162.5,151.5 C 164.199,151.34 165.866,151.506 167.5,152C 166.944,152.383 166.611,152.883 166.5,153.5C 164.62,153.771 163.287,153.104 162.5,151.5 Z"/></g>
<g><path style="opacity:1" fill="#ed7a78" d="M 173.5,149.5 C 174.151,150.091 174.818,150.757 175.5,151.5C 177.225,149.908 178.225,150.242 178.5,152.5C 171.589,153.398 171.256,154.232 177.5,155C 175.922,156.14 174.256,156.64 172.5,156.5C 173.934,157.23 175.1,158.23 176,159.5C 177.339,155.902 179.172,155.568 181.5,158.5C 180.167,158.5 178.833,158.5 177.5,158.5C 177.567,159.959 177.234,161.292 176.5,162.5C 172.518,160.183 169.185,157.183 166.5,153.5C 166.611,152.883 166.944,152.383 167.5,152C 165.866,151.506 164.199,151.34 162.5,151.5C 161.766,150.292 161.433,148.959 161.5,147.5C 159.821,147.715 158.821,147.048 158.5,145.5C 159.117,145.611 159.617,145.944 160,146.5C 161.593,144.715 163.093,144.548 164.5,146C 162.993,146.837 162.493,148.004 163,149.5C 165.044,150.772 166.878,150.439 168.5,148.5C 168.554,149.687 168.887,151.02 169.5,152.5C 171.483,152.185 172.816,151.185 173.5,149.5 Z"/></g>
<g><path style="opacity:1" fill="#fbdede" d="M 178.5,152.5 C 180.628,155.13 182.961,157.63 185.5,160C 184.944,160.383 184.611,160.883 184.5,161.5C 183.1,160.9 182.1,159.9 181.5,158.5C 179.172,155.568 177.339,155.902 176,159.5C 175.1,158.23 173.934,157.23 172.5,156.5C 174.256,156.64 175.922,156.14 177.5,155C 171.256,154.232 171.589,153.398 178.5,152.5 Z"/></g>
<g><path style="opacity:1" fill="#f49a97" d="M 76.5,153.5 C 78.4553,153.799 79.7886,154.799 80.5,156.5C 78.1162,158.885 75.4495,160.885 72.5,162.5C 72.5,161.833 72.5,161.167 72.5,160.5C 73.404,159.791 73.7373,158.791 73.5,157.5C 74.675,157.719 75.675,157.386 76.5,156.5C 74.7445,156.64 73.0778,156.14 71.5,155C 73.3817,154.802 75.0484,154.302 76.5,153.5 Z"/></g>
<g><path style="opacity:1" fill="#e55758" d="M 72.5,160.5 C 71.2209,159.032 69.5542,158.365 67.5,158.5C 70.4965,155.494 72.1632,156.161 72.5,160.5 Z"/></g>
<g><path style="opacity:1" fill="#fdebeb" d="M 67.5,158.5 C 69.5542,158.365 71.2209,159.032 72.5,160.5C 72.5,161.167 72.5,161.833 72.5,162.5C 66.8445,166.663 60.5111,168.496 53.5,168C 55.7594,166.285 57.9261,164.452 60,162.5C 60.1667,163 60.3333,163.5 60.5,164C 57.6105,165.892 57.9438,166.725 61.5,166.5C 61.5,164.833 61.5,163.167 61.5,161.5C 62.5,161.5 63.5,161.5 64.5,161.5C 65.5268,162.848 66.8602,163.348 68.5,163C 67.6198,161.644 67.2865,160.144 67.5,158.5 Z"/></g>
<g><path style="opacity:1" fill="#e34a4a" d="M 67.5,158.5 C 67.2865,160.144 67.6198,161.644 68.5,163C 66.8602,163.348 65.5268,162.848 64.5,161.5C 65.8999,160.9 66.8999,159.9 67.5,158.5 Z"/></g>
<g><path style="opacity:1" fill="#e34a4b" d="M 181.5,158.5 C 182.1,159.9 183.1,160.9 184.5,161.5C 183.473,162.848 182.14,163.348 180.5,163C 181.38,161.644 181.714,160.144 181.5,158.5 Z"/></g>
<g><path style="opacity:1" fill="#fdeded" d="M 181.5,158.5 C 181.714,160.144 181.38,161.644 180.5,163C 182.14,163.348 183.473,162.848 184.5,161.5C 185.5,161.5 186.5,161.5 187.5,161.5C 187.5,163.167 187.5,164.833 187.5,166.5C 188.552,166.649 189.552,166.483 190.5,166C 188.842,165.275 188.342,164.108 189,162.5C 191.074,164.452 193.241,166.285 195.5,168C 188.509,168.508 182.175,166.674 176.5,162.5C 177.234,161.292 177.567,159.959 177.5,158.5C 178.833,158.5 180.167,158.5 181.5,158.5 Z"/></g>
<g><path style="opacity:0.995" fill="#017f00" d="M 485.5,332.5 C 459.059,404.776 410.059,455.276 338.5,484C 316.957,491.721 294.957,496.888 272.5,499.5C 264.833,499.5 257.167,499.5 249.5,499.5C 249.5,443.833 249.5,388.167 249.5,332.5C 328.167,332.5 406.833,332.5 485.5,332.5 Z"/></g>
</svg>
