<?xml version="1.0" encoding="UTF-8"?>
<!DOCTYPE svg PUBLIC "-//W3C//DTD SVG 1.1//EN" "http://www.w3.org/Graphics/SVG/1.1/DTD/svg11.dtd">
<svg xmlns="http://www.w3.org/2000/svg" version="1.1" width="512px" height="512px" style="shape-rendering:geometricPrecision; text-rendering:geometricPrecision; image-rendering:optimizeQuality; fill-rule:evenodd; clip-rule:evenodd" xmlns:xlink="http://www.w3.org/1999/xlink">
<g><path style="opacity:0.985" fill="#16abe7" d="M 71.5,-0.5 C 78.1667,-0.5 84.8333,-0.5 91.5,-0.5C 99.9577,2.06475 107.624,6.23142 114.5,12C 144.695,41.8612 174.528,72.0278 204,102.5C 216.103,123.342 214.436,143.008 199,161.5C 191.965,168.703 184.798,175.703 177.5,182.5C 128.167,132.5 78.5,82.8333 28.5,33.5C 36.6583,24.8416 44.9916,16.3416 53.5,8C 59.2079,4.31011 65.2079,1.47678 71.5,-0.5 Z"/></g>
<g><path style="opacity:0.961" fill="#1de8f0" d="M 280.5,-0.5 C 289.5,-0.5 298.5,-0.5 307.5,-0.5C 355.492,4.55051 397.825,22.7172 434.5,54C 438.37,57.7023 442.037,61.5357 445.5,65.5C 438.167,72.1667 431.167,79.1667 424.5,86.5C 391.329,55.4201 351.996,36.9201 306.5,31C 299.833,30.6667 293.167,30.3333 286.5,30C 279.018,30.0205 274.184,26.5205 272,19.5C 269.92,10.5339 272.753,3.86727 280.5,-0.5 Z"/></g>
<g><path style="opacity:0.992" fill="#0d70b2" d="M 28.5,33.5 C 78.5,82.8333 128.167,132.5 177.5,182.5C 161.296,201.841 160.463,221.841 175,242.5C 191.733,258.731 207.9,275.398 223.5,292.5C 222.448,292.351 221.448,292.517 220.5,293C 185.632,328.035 150.632,362.868 115.5,397.5C 49.196,329.213 10.5293,247.547 -0.5,152.5C -0.5,137.833 -0.5,123.167 -0.5,108.5C 1.25267,91.8147 5.08601,75.4813 11,59.5C 15.5215,49.837 21.3548,41.1703 28.5,33.5 Z"/></g>
<g><path style="opacity:0.96" fill="#1de8f0" d="M 403.5,107.5 C 395.833,114.5 388.5,121.833 381.5,129.5C 355.14,103.98 323.473,90.8132 286.5,90C 276.572,89.5726 271.572,84.4059 271.5,74.5C 271.451,67.7262 274.451,62.8929 280.5,60C 328.488,58.2652 369.488,74.0986 403.5,107.5 Z"/></g>
<g><path style="opacity:1" fill="#1bd9de" d="M 445.5,65.5 C 473.801,93.0427 493.301,126.043 504,164.5C 507.235,177.502 509.735,190.502 511.5,203.5C 511.5,212.5 511.5,221.5 511.5,230.5C 507.133,238.247 500.466,241.08 491.5,239C 484.479,236.816 480.979,231.982 481,224.5C 480.626,185.715 469.959,150.048 449,117.5C 441.357,106.698 433.191,96.3643 424.5,86.5C 431.167,79.1667 438.167,72.1667 445.5,65.5 Z"/></g>
<g><path style="opacity:1" fill="#1bd9de" d="M 403.5,107.5 C 438.481,142.785 453.648,185.118 449,234.5C 440.667,241.167 432.333,241.167 424,234.5C 422.154,231.431 421.154,228.098 421,224.5C 420.187,187.527 407.02,155.86 381.5,129.5C 388.5,121.833 395.833,114.5 403.5,107.5 Z"/></g>
<g><path style="opacity:0.957" fill="#1de8f0" d="M 360.5,149.5 C 353.5,156.833 346.5,164.167 339.5,171.5C 322.716,156.787 303.049,149.287 280.5,149C 272.66,144.849 269.827,138.349 272,129.5C 275.251,121.12 281.418,117.786 290.5,119.5C 317.966,120.242 341.299,130.242 360.5,149.5 Z"/></g>
<g><path style="opacity:1" fill="#1bd9de" d="M 360.5,149.5 C 384.509,173.028 394.009,201.361 389,234.5C 380.667,241.167 372.333,241.167 364,234.5C 363.333,233.167 362.667,231.833 362,230.5C 361.713,207.951 354.213,188.284 339.5,171.5C 346.5,164.167 353.5,156.833 360.5,149.5 Z"/></g>
<g><path style="opacity:0.951" fill="#1ce7f0" d="M 318.5,192.5 C 310.776,199.222 303.776,206.555 297.5,214.5C 292.421,211.108 286.754,209.275 280.5,209C 272.66,204.849 269.827,198.349 272,189.5C 273.105,184.794 275.938,181.627 280.5,180C 295.364,177.899 308.031,182.066 318.5,192.5 Z"/></g>
<g><path style="opacity:1" fill="#1bd9de" d="M 318.5,192.5 C 330.509,204.363 334.009,218.363 329,234.5C 320.667,241.167 312.333,241.167 304,234.5C 301.924,229.727 300.591,224.727 300,219.5C 299.153,217.807 298.32,216.14 297.5,214.5C 303.776,206.555 310.776,199.222 318.5,192.5 Z"/></g>
<g><path style="opacity:1" fill="#0059aa" d="M 223.5,292.5 C 237.965,306.465 252.299,320.631 266.5,335C 287.596,350.61 308.263,350.11 328.5,333.5C 377.833,383.167 427.167,432.833 476.5,482.5C 469.108,490.044 460.441,495.877 450.5,500C 434.874,505.954 418.874,509.787 402.5,511.5C 387.5,511.5 372.5,511.5 357.5,511.5C 263.382,501.435 182.716,463.435 115.5,397.5C 150.632,362.868 185.632,328.035 220.5,293C 221.448,292.517 222.448,292.351 223.5,292.5 Z"/></g>
<g><path style="opacity:0.986" fill="#1588fb" d="M 511.5,421.5 C 511.5,426.833 511.5,432.167 511.5,437.5C 509.752,444.214 506.919,450.547 503,456.5C 494.941,466.06 486.108,474.727 476.5,482.5C 427.167,432.833 377.833,383.167 328.5,333.5C 335.328,326.504 341.995,319.337 348.5,312C 362.924,299.647 379.257,296.313 397.5,302C 402.997,304.245 407.997,307.245 412.5,311C 443.361,341.528 473.861,372.361 504,403.5C 507.393,409.266 509.893,415.266 511.5,421.5 Z"/></g>
</svg>
