<svg width="62" height="65" viewBox="0 0 62 65" fill="none" xmlns="http://www.w3.org/2000/svg">
<path d="M23.3334 31.0321C23.3334 27.1143 25.0807 23.9311 28.5753 21.4825C32.0699 19.0338 36.7362 17.8095 42.5742 17.8095C46.0688 17.8095 49.1317 18.2176 51.7629 19.0338C54.3942 19.8092 56.4087 20.8907 57.8065 22.2783C60.6022 25.0126 62 28.155 62 31.7055C62 35.256 60.5611 38.2351 57.6832 40.643C54.8464 43.01 51.2079 44.1935 46.7677 44.1935C46.2744 44.1935 45.5343 44.1526 44.5476 44.071L45.1026 39.6023C50.5707 39.6023 53.3047 37.0516 53.3047 31.9503C53.3047 29.5833 52.2974 27.5836 50.2829 25.9512C48.1861 24.2372 45.0615 23.3801 40.9091 23.3801C36.7567 23.3801 33.4677 24.4412 31.042 26.5634C29.6031 27.7877 28.8836 29.114 28.8836 30.5424C28.8836 33.2359 30.5076 34.7662 33.7555 35.1335L33.0155 39.6635C30.1787 39.5411 27.8558 38.6432 26.0468 36.97C24.2379 35.2968 23.3334 33.3175 23.3334 31.0321ZM45.041 26.5634L42.3275 44.071C47.5489 46.5605 50.1595 50.2334 50.1595 55.0898C50.1595 58.6403 49.2139 61.1502 47.3227 62.6194C45.4727 64.0477 43.232 64.7619 40.6008 64.7619C37.9696 64.7619 35.9139 64.0885 34.4339 62.7418C32.9538 61.395 32.2138 59.579 32.2138 57.2936C32.2138 56.7631 32.2343 56.355 32.2754 56.0693L35.9756 27.7265C38.1135 26.7062 39.9224 26.1961 41.4025 26.1961C42.8826 26.1961 44.0954 26.3185 45.041 26.5634ZM42.3892 59.1913C43.3759 59.1913 44.2187 58.8444 44.9176 58.1506C45.6577 57.4568 46.0277 56.2937 46.0277 54.6613C46.0277 51.7638 44.6298 49.4784 41.8342 47.8052C41.1764 52.58 40.8475 55.4571 40.8475 56.4366C40.8475 57.3752 40.9914 58.069 41.2791 58.5179C41.6081 58.9668 41.9781 59.1913 42.3892 59.1913Z" fill="#E4961C"/>
<path d="M5.34474 24.9006C7.37401 26.8052 9.90421 27.8536 12.817 28.121L10.9599 42.5558C10.9004 42.9831 10.8804 43.5027 10.8804 44.0647C10.8804 46.8492 11.7902 49.2587 13.7437 51.0625C15.6951 52.8642 18.2916 53.6429 21.2674 53.6429C24.2893 53.6429 26.9787 52.8012 29.2228 51.0432L29.2275 51.0395C31.801 49.0109 32.8262 45.7313 32.8262 41.8286C32.8262 38.9899 32.0669 36.4179 30.5062 34.19C30.142 33.67 29.7384 33.1748 29.2972 32.7037C33.3209 32.4021 36.806 31.0969 39.6422 28.6956L39.6442 28.6939C42.9452 25.8915 44.6667 22.3216 44.6667 18.1003C44.6667 13.9144 43.019 10.2304 39.8872 7.12002C38.1841 5.407 35.8417 4.17685 33.0163 3.33027C30.1503 2.43006 26.8816 2 23.2408 2C17.1346 2 12.0189 3.29851 8.08297 6.09695C4.10932 8.92219 2 12.7367 2 17.417C2 20.3302 3.16444 22.8542 5.34474 24.9006ZM14.6586 13.8076L13.9289 19.4788C13.0015 19.2894 12.4595 18.9846 12.1504 18.6891C11.8162 18.3694 11.5502 17.8675 11.5502 16.9201C11.5502 16.2206 11.8708 15.3848 13.0157 14.3964L13.0261 14.3874L13.0364 14.3782C13.5485 13.9236 14.115 13.521 14.7401 13.174L14.6586 13.8076ZM27.6847 13.1845L27.7636 12.6681C28.5159 12.9842 29.1482 13.3657 29.6726 13.8008L29.6726 13.8008L29.6793 13.8062C31.277 15.1199 31.9713 16.6013 31.9713 18.3488C31.9713 20.5998 31.3822 21.928 30.5458 22.7197C29.718 23.5033 28.3205 24.0734 26.0157 24.1112L27.6847 13.1845ZM24.2058 43.4853L24.1851 43.505L24.165 43.5252C23.9734 43.7182 23.7793 43.8451 23.5602 43.9169C23.5331 43.7393 23.5141 43.5021 23.5141 43.1951C23.5141 42.619 23.6615 41.1 23.9782 38.5585C24.4699 39.4084 24.6943 40.3491 24.6943 41.3937C24.6943 42.8308 24.3614 43.3373 24.2058 43.4853Z" fill="#E4961C" stroke="white" stroke-width="4"/>
</svg>
